<svg width="156" height="156" viewBox="0 0 156 156" fill="none" xmlns="http://www.w3.org/2000/svg">
<path d="M127.952 34.9756C127.351 34.1737 126.571 33.5229 125.674 33.0746C124.778 32.6263 123.789 32.3929 122.787 32.3929H96.9601V25.9363C96.9601 22.5115 95.5996 19.2269 93.1779 16.8052C90.7562 14.3835 87.4716 13.0229 84.0468 13.0229H19.4801C16.0553 13.0229 12.7707 14.3835 10.349 16.8052C7.92728 19.2269 6.56677 22.5115 6.56677 25.9363V109.873C6.56677 111.585 7.24703 113.228 8.45789 114.439C9.66875 115.649 11.311 116.33 13.0234 116.33H19.4801C19.4801 123.179 22.2011 129.748 27.0446 134.592C31.888 139.435 38.4571 142.156 45.3068 142.156C52.1564 142.156 58.7255 139.435 63.569 134.592C68.4124 129.748 71.1334 123.179 71.1334 116.33H84.0468C84.0468 123.179 86.7678 129.748 91.6112 134.592C96.4547 139.435 103.024 142.156 109.873 142.156C116.723 142.156 123.292 139.435 128.136 134.592C132.979 129.748 135.7 123.179 135.7 116.33C139.125 116.33 142.409 114.969 144.831 112.547C147.253 110.126 148.613 106.841 148.613 103.416V64.6763C148.613 63.2793 148.16 61.9199 147.322 60.8023L127.952 34.9756ZM45.3068 129.243C41.8819 129.243 38.5974 127.882 36.1757 125.461C33.7539 123.039 32.3934 119.754 32.3934 116.33C32.4596 112.925 33.8413 109.679 36.2488 107.272C38.6564 104.864 41.9026 103.482 45.3068 103.416C48.7089 103.489 51.9515 104.873 54.3577 107.279C56.7638 109.685 58.1476 112.928 58.2201 116.33C58.2201 119.754 56.8596 123.039 54.4379 125.461C52.0162 127.882 48.7316 129.243 45.3068 129.243ZM67.5887 103.416C65.2975 99.5305 62.0434 96.3008 58.1405 94.0388C54.2375 91.7769 49.8174 90.5591 45.3068 90.5029C40.7965 90.561 36.3771 91.7796 32.4745 94.0413C28.5719 96.3031 25.3175 99.5317 23.0248 103.416H19.4801V25.9363H84.0468V103.416H67.5887ZM109.873 129.243C106.449 129.243 103.164 127.882 100.742 125.461C98.3206 123.039 96.9601 119.754 96.9601 116.33C96.9601 112.905 98.3206 109.62 100.742 107.199C103.164 104.777 106.449 103.416 109.873 103.416C113.298 103.416 116.583 104.777 119.005 107.199C121.426 109.62 122.787 112.905 122.787 116.33C122.787 119.754 121.426 123.039 119.005 125.461C116.583 127.882 113.298 129.243 109.873 129.243ZM135.7 103.416H132.155C129.866 99.5292 126.612 96.2985 122.709 94.0364C118.805 91.7743 114.384 90.5572 109.873 90.5029C105.343 90.5691 100.902 91.7748 96.9601 94.0089V45.3063H119.558L135.7 66.8264V103.416ZM58.2201 51.7629H71.1334V64.6763H58.2201V77.5896H45.3068V64.6763H32.3934V51.7629H45.3068V38.8496H58.2201V51.7629Z" fill="#FF4E39"/>
</svg>
