<svg width="26" height="26" viewBox="0 0 26 26" fill="none" xmlns="http://www.w3.org/2000/svg">
<rect x="0.55835" y="0.558594" width="24.8832" height="24.8832" rx="3" fill="white"/>
<g clip-path="url(#clip0_2913_46)">
<path d="M7.95457 17.4057C7.77302 17.6073 7.6375 17.8393 7.56163 18.074C7.50853 18.2393 7.48303 18.4024 7.48303 18.5553C7.48303 18.6485 7.49226 18.7374 7.51231 18.8214C7.5275 18.8837 7.54807 18.9434 7.57572 18.9981C7.59632 19.0398 7.62126 19.0794 7.6505 19.1152C7.69442 19.1683 7.7486 19.2143 7.81312 19.2463C7.87708 19.2789 7.95079 19.2962 8.02558 19.2957V18.9569C8.00987 18.9569 7.99793 18.9547 7.98656 18.9515C7.96651 18.9461 7.95024 18.9368 7.93182 18.9206C7.91881 18.9081 7.90473 18.8919 7.89172 18.8696C7.87219 18.8376 7.85377 18.7932 7.84132 18.7401C7.82887 18.6864 7.82179 18.6241 7.82179 18.5553C7.82179 18.4409 7.84184 18.3108 7.88412 18.1775C7.9237 18.055 7.98656 17.9282 8.06894 17.8079C8.19198 17.6268 8.36 17.4616 8.55401 17.3434C8.65047 17.2843 8.75454 17.2366 8.86242 17.2041C8.97081 17.1715 9.0841 17.1542 9.20117 17.1542C9.35727 17.1542 9.50687 17.1856 9.6467 17.242C9.8559 17.3254 10.0451 17.4658 10.1963 17.6333C10.347 17.8002 10.4592 17.9942 10.5177 18.1775C10.5605 18.3108 10.5806 18.4409 10.5806 18.5552C10.5806 18.6252 10.573 18.6886 10.56 18.7422C10.5508 18.7823 10.5378 18.8181 10.5237 18.8463C10.5128 18.868 10.5014 18.8853 10.4895 18.9C10.4722 18.9211 10.4548 18.9347 10.4381 18.9433C10.4207 18.9514 10.4028 18.9563 10.3768 18.9569V19.2957C10.4212 19.2962 10.4652 19.2897 10.5069 19.2783C10.58 19.2583 10.6456 19.2203 10.6993 19.171C10.7394 19.1341 10.773 19.0919 10.8006 19.0458C10.8429 18.9764 10.8722 18.8995 10.8911 18.8171C10.9101 18.7347 10.9193 18.6469 10.9193 18.5553C10.9193 18.4024 10.8939 18.2388 10.8407 18.074C10.7903 17.9173 10.7134 17.7624 10.6136 17.6165C10.464 17.3981 10.2646 17.1997 10.025 17.0534C9.90526 16.9808 9.7757 16.9212 9.63751 16.88C9.49931 16.8377 9.35297 16.8149 9.20121 16.8149C8.99905 16.8149 8.80608 16.8562 8.62994 16.9271C8.36486 17.0333 8.13613 17.2046 7.95457 17.4057Z" fill="#FF4E39"/>
<path d="M9.86404 18.8025C9.80875 18.8464 9.77625 18.9125 9.77625 18.9835V19.2573C9.77625 19.3277 9.80878 19.3944 9.86404 19.4383C9.91933 19.4816 9.99197 19.4979 10.0602 19.4816L10.2429 19.4383V18.802L10.0602 18.7586C9.99193 18.7424 9.91933 18.7586 9.86404 18.8025Z" fill="#FF4E39"/>
<path d="M8.34212 18.7586L8.15894 18.802V19.4383L8.34212 19.4817C8.41042 19.4979 8.48306 19.4817 8.53831 19.4383C8.5936 19.3944 8.62611 19.3277 8.62611 19.2573V18.9835C8.62611 18.9125 8.59357 18.8464 8.53831 18.8025C8.48306 18.7586 8.41042 18.7424 8.34212 18.7586Z" fill="#FF4E39"/>
<path d="M19.8491 18.0217C19.7792 17.7604 19.6806 17.5263 19.5592 17.3182C19.3462 16.9523 19.0643 16.6678 18.7533 16.4423C18.5197 16.2732 18.2703 16.135 18.0167 16.0163C17.6368 15.8385 17.2482 15.7019 16.8894 15.5691C16.5306 15.4369 16.2027 15.3074 15.9474 15.1567C15.8541 15.1014 15.7702 15.0439 15.6975 14.9838C15.5891 14.8933 15.5046 14.7968 15.4433 14.689C15.3821 14.5811 15.3409 14.4597 15.3252 14.3079C15.3138 14.1995 15.3089 14.0976 15.3089 14.0001C15.3089 13.7128 15.3512 13.4641 15.4054 13.2099C15.5658 13.0288 15.7127 12.8131 15.8514 12.5552C15.9907 12.2956 16.123 11.9926 16.2547 11.6337C16.3393 11.5953 16.4243 11.5492 16.5072 11.4928C16.697 11.366 16.8769 11.1882 17.027 10.9514C17.1766 10.7145 17.2969 10.4202 17.3793 10.0571C17.402 9.9563 17.4129 9.85601 17.4129 9.75736C17.4135 9.55139 17.3647 9.3552 17.2828 9.17961C17.2259 9.05765 17.1538 8.94602 17.0698 8.84466C17.1126 8.68639 17.1646 8.4734 17.2113 8.22407C17.2752 7.87775 17.3283 7.4615 17.3283 7.02409C17.3283 6.7417 17.3061 6.45012 17.2487 6.16232C17.2059 5.94659 17.1424 5.7325 17.0535 5.52764C16.9197 5.21923 16.7251 4.92928 16.4546 4.68973C16.2042 4.46804 15.8904 4.29138 15.5115 4.17809C15.3777 4.01766 15.2433 3.88106 15.1056 3.7651C14.9863 3.66537 14.8644 3.58136 14.7397 3.51254C14.5522 3.40847 14.3582 3.33965 14.1593 3.29789C13.9604 3.25613 13.7577 3.24097 13.5474 3.24097C13.2574 3.24097 12.9523 3.26969 12.6151 3.30275C12.4878 3.31575 12.381 3.33147 12.2883 3.34774C12.1501 3.37268 12.0466 3.39814 11.9637 3.41496C11.9219 3.42308 11.8856 3.4296 11.8499 3.43394C11.8141 3.43772 11.7794 3.44046 11.7398 3.44046C11.6867 3.44046 11.6255 3.43612 11.5453 3.42474C11.2997 3.38898 11.0754 3.33369 10.8992 3.27947C10.8114 3.2529 10.7355 3.22636 10.6759 3.20358C10.6461 3.1922 10.6201 3.1819 10.5995 3.17322C10.5784 3.16455 10.5626 3.15644 10.5534 3.1521L10.554 3.15265C10.5269 3.13857 10.5009 3.13097 10.4776 3.12664C10.4542 3.12119 10.4337 3.12012 10.4158 3.12012C10.3784 3.12012 10.3518 3.12553 10.3307 3.13097C10.3096 3.13642 10.2933 3.14291 10.2787 3.14887C10.2505 3.16025 10.2288 3.17218 10.2071 3.18519C10.1675 3.20906 10.1296 3.23559 10.0895 3.2665C10.0195 3.32071 9.9426 3.3879 9.86074 3.46703C9.73826 3.58517 9.60707 3.72826 9.48785 3.88435C9.42822 3.96184 9.37241 4.04315 9.32201 4.12716C9.2716 4.21118 9.22717 4.29734 9.19193 4.38788C9.01957 4.83611 8.90576 5.2491 8.8353 5.63014C8.7643 6.01115 8.73721 6.36021 8.73721 6.68051C8.73721 7.20461 8.81036 7.64906 8.88085 8.02465C8.88085 8.04255 8.8814 8.05934 8.88248 8.07724C8.88467 8.11248 8.88845 8.1488 8.89223 8.18671C8.89819 8.24308 8.90468 8.30108 8.90957 8.34985C8.91228 8.37423 8.91446 8.39591 8.91609 8.41274C8.91665 8.42085 8.91717 8.42845 8.91717 8.43386L8.91772 8.43927V8.4409V8.44146V8.47344L8.98654 8.77966C8.88737 8.88806 8.80173 9.00947 8.73506 9.1428C8.64182 9.32817 8.58656 9.53737 8.58656 9.75851C8.58656 9.85608 8.59794 9.95688 8.62069 10.0571C8.67491 10.2994 8.74699 10.5108 8.83315 10.6951C8.96216 10.972 9.12585 11.1872 9.30685 11.3487C9.44723 11.4745 9.59735 11.5661 9.74585 11.6338C9.87701 11.9926 10.0093 12.2951 10.1485 12.5547C10.2873 12.8132 10.4336 13.0284 10.5941 13.2094C10.6483 13.4636 10.6905 13.7129 10.6911 14.0002C10.6911 14.0977 10.6857 14.1996 10.6743 14.308C10.6634 14.4121 10.6407 14.5021 10.6076 14.5834C10.5583 14.7048 10.4862 14.8083 10.3881 14.9064C10.29 15.0029 10.1648 15.0934 10.0169 15.1774C9.86674 15.2625 9.69275 15.3422 9.50359 15.4181C9.17188 15.5525 8.79358 15.6793 8.41038 15.8327C8.12314 15.9471 7.83207 16.0777 7.55457 16.2408C7.34645 16.3633 7.14644 16.5053 6.96218 16.6739C6.68631 16.9264 6.44835 17.2413 6.28414 17.6305C6.11938 18.0202 6.02777 18.4814 6.02832 19.0267C6.02832 19.1036 6.04459 19.1768 6.07113 19.2445C6.09551 19.3079 6.12968 19.3659 6.16978 19.4212C6.24567 19.5242 6.34322 19.6163 6.46299 19.7053C6.6733 19.8603 6.9524 20.0055 7.31391 20.1421C7.8559 20.3465 8.58219 20.5302 9.52146 20.6635C10.4602 20.7968 11.6119 20.8803 12.9994 20.8803C14.2032 20.8803 15.2287 20.818 16.092 20.7144C16.7392 20.6364 17.2958 20.5356 17.7679 20.4202C18.1224 20.334 18.4297 20.2391 18.6931 20.1394C18.8904 20.0646 19.0638 19.9866 19.2145 19.9063C19.3272 19.8462 19.4269 19.7844 19.5153 19.721C19.6475 19.625 19.7538 19.5264 19.8345 19.4142C19.8752 19.3584 19.9082 19.2987 19.9326 19.2337C19.957 19.1697 19.9716 19.0993 19.9716 19.0267C19.9716 18.6536 19.9288 18.3203 19.8491 18.0217ZM15.472 15.5415L13.7322 18.2585L13.5382 16.9247L14.0319 16.4022L13.7122 15.8688L15.0617 15.1594C15.0991 15.2076 15.1387 15.2531 15.1804 15.2965C15.2699 15.3881 15.368 15.4689 15.472 15.5415ZM10.4705 6.14334C12.039 6.49129 15.1062 5.82626 15.1062 5.82626C15.1062 5.82626 15.1392 6.58668 15.6623 7.28477C15.8682 7.55901 16.0379 7.98774 16.1652 8.39532C16.1311 8.33191 16.0509 8.30805 15.9311 8.29289C15.6623 8.25657 15.2628 8.23326 14.813 8.25494C13.4764 8.32054 13.5756 8.44194 13.0509 8.44194C12.5263 8.44194 12.6255 8.32054 11.2889 8.25494C10.8391 8.23326 10.4396 8.25657 10.1703 8.29289C10.0304 8.31131 9.9426 8.33951 9.92255 8.43272C9.91551 8.4674 9.90465 8.50643 9.85644 8.5254C10.0044 7.97259 10.4163 7.26635 10.4705 6.14334ZM15.911 9.24139C15.911 9.24898 15.9056 10.0154 15.3842 10.2771C15.207 10.3665 14.9847 10.4159 14.7588 10.4164C14.5203 10.4164 14.3024 10.3622 14.1284 10.2598C13.936 10.147 13.8065 9.97957 13.7431 9.76329C13.7279 9.71289 13.7143 9.66249 13.7003 9.61369C13.6591 9.46463 13.5479 9.05057 13.7837 8.86846C13.9355 8.74976 14.4065 8.67497 14.858 8.67497C15.2682 8.67497 15.6867 8.73079 15.8092 8.85871C15.8899 8.94328 15.9213 9.09396 15.911 9.24139ZM12.4016 9.61372C12.3875 9.66249 12.3734 9.71289 12.3588 9.76333C12.2954 9.97957 12.1659 10.1471 11.974 10.2598C11.7995 10.3622 11.5816 10.4165 11.3431 10.4165C11.1171 10.4159 10.8954 10.3666 10.7177 10.2772C10.1963 10.0154 10.1914 9.24898 10.1908 9.24142C10.1805 9.094 10.2119 8.94332 10.2922 8.85878C10.4152 8.73085 10.8336 8.67504 11.2439 8.67504C11.6949 8.67504 12.1664 8.74983 12.3187 8.86853C12.5539 9.0506 12.4428 9.46467 12.4016 9.61372ZM10.6602 12.2798C10.5242 12.0261 10.3887 11.7107 10.2494 11.3172L10.2033 11.1888L10.0754 11.1416C9.98648 11.1091 9.89976 11.0669 9.81686 11.011C9.69167 10.927 9.57297 10.8121 9.46402 10.6408C9.35506 10.4695 9.25752 10.2397 9.18707 9.92917C9.17351 9.8701 9.1681 9.81373 9.1681 9.75844C9.1681 9.63377 9.19789 9.51563 9.25482 9.40289C9.30144 9.30913 9.36647 9.22078 9.4456 9.14055C9.57894 9.34219 9.68948 9.50206 9.72962 9.54216C9.80603 9.61858 9.84398 9.54487 9.84995 9.40178C9.89709 9.71993 10.0483 10.2451 10.5367 10.5047C11.2396 10.8782 12.2889 10.7383 12.645 9.90693C12.806 9.53186 12.8081 9.16549 13.0509 9.16549C13.2932 9.16549 13.2959 9.53189 13.4569 9.90693C13.8135 10.7384 14.8628 10.8782 15.5658 10.5047C16.2682 10.1313 16.2731 9.20666 16.2731 9.14162C16.2731 9.10801 16.3051 9.08255 16.3506 9.07766C16.4102 9.32859 16.4411 9.4988 16.4411 9.4988C16.4411 9.4988 16.5083 9.37035 16.6091 9.19907C16.6693 9.26952 16.7192 9.34541 16.756 9.42454C16.8053 9.53078 16.8319 9.64189 16.8319 9.75733C16.8319 9.81314 16.8259 9.87006 16.8124 9.92861C16.7657 10.1357 16.7067 10.3069 16.6405 10.4489C16.5408 10.6614 16.4259 10.8077 16.3056 10.9151C16.1858 11.0224 16.0579 11.0923 15.9251 11.1416L15.7967 11.1882L15.7511 11.3172C15.6118 11.7107 15.4758 12.0267 15.3398 12.2798C15.2032 12.5335 15.0677 12.7243 14.9268 12.8728L14.871 12.9318L14.8536 13.0104C14.7907 13.3004 14.7279 13.6207 14.7279 14.0001C14.7279 14.1172 14.7338 14.2391 14.7469 14.3676C14.7626 14.5183 14.7973 14.6597 14.8488 14.7898C14.851 14.7958 14.8542 14.8022 14.8564 14.8077L13.0911 15.7361L11.1345 14.8283C11.1946 14.6874 11.2353 14.5335 11.2526 14.3676C11.2662 14.2392 11.2716 14.1172 11.2716 14.0001C11.2722 13.6207 11.2093 13.2999 11.1459 13.0099L11.1285 12.9313L11.0727 12.8728C10.9323 12.7231 10.7963 12.5334 10.6602 12.2798ZM10.6445 15.4548C10.7464 15.373 10.8402 15.2813 10.9231 15.1784L12.4152 15.871L12.0965 16.4022L12.5897 16.9247L12.4076 18.1805L10.5041 15.5578C10.5524 15.5247 10.5995 15.4905 10.6445 15.4548ZM19.3901 19.0243C19.3895 19.0276 19.3858 19.0384 19.3755 19.0558C19.3559 19.0894 19.3104 19.1436 19.2334 19.2054C19.1668 19.259 19.0768 19.3192 18.9635 19.381C18.7646 19.4899 18.4953 19.6032 18.1538 19.7105C17.6411 19.872 16.9641 20.0195 16.1099 20.1268C15.2558 20.233 14.2244 20.2991 12.9994 20.2991C11.8168 20.2991 10.8141 20.2374 9.97729 20.1371C9.34965 20.0617 8.81526 19.9642 8.36973 19.8558C8.03479 19.774 7.74969 19.6856 7.51284 19.5956C7.33452 19.5284 7.18331 19.4601 7.0592 19.3935C6.96596 19.3436 6.88739 19.2943 6.82343 19.2488C6.72804 19.1805 6.66734 19.1181 6.63698 19.0753C6.62179 19.0547 6.61423 19.0385 6.61152 19.0309C6.60989 19.0276 6.60934 19.0255 6.60934 19.0244C6.60934 18.6992 6.64621 18.4206 6.71014 18.1789C6.76595 17.9675 6.84292 17.7837 6.93668 17.6212C7.10037 17.3366 7.31554 17.1133 7.57136 16.9252C7.76214 16.7838 7.97623 16.6629 8.20278 16.555C8.45697 16.4342 8.72687 16.3301 8.99789 16.2298V16.8152H9.20112H9.40435V16.0797C9.66343 15.9827 9.91599 15.883 10.1512 15.7637L13.1587 19.9073L15.7863 15.8049C15.7944 15.8174 15.8026 15.8299 15.8102 15.8418C15.9196 16.0179 15.9961 16.2098 16.047 16.4271C16.0974 16.6439 16.1207 16.8868 16.1207 17.1572C16.1207 17.7838 16.1207 18.3295 16.1207 18.697H15.1766V19.104H17.5007V18.697H16.5565C16.5565 18.3295 16.5565 17.7838 16.5565 17.1572C16.5565 16.7632 16.5115 16.4044 16.3999 16.077C16.3901 16.0488 16.3798 16.0206 16.369 15.993C16.6866 16.1182 17.0188 16.2309 17.3408 16.3588C17.6167 16.4678 17.8844 16.587 18.1278 16.7285C18.311 16.8347 18.4806 16.9539 18.6313 17.0894C18.8573 17.2949 19.0427 17.5371 19.176 17.8477C19.3088 18.1577 19.3901 18.5393 19.3901 19.0243Z" fill="#FF4E39"/>
</g>
<defs>
<clipPath id="clip0_2913_46">
<rect width="17.76" height="17.76" fill="white" transform="translate(4.12 3.12012)"/>
</clipPath>
</defs>
</svg>
