<svg width="25" height="25" viewBox="0 0 25 25" fill="none" xmlns="http://www.w3.org/2000/svg">
<rect width="24.8832" height="24.8832" rx="3" fill="white"/>
<path fill-rule="evenodd" clip-rule="evenodd" d="M20.075 10.025C20.075 8.83121 20.075 8.23431 19.7885 7.80553C19.6645 7.61991 19.5051 7.46053 19.3195 7.3365C18.9445 7.0859 18.4408 7.0545 17.5216 7.05056C17.5251 7.29825 17.525 7.55707 17.525 7.82393V7.9V8.9625H18.375C18.7271 8.9625 19.0125 9.24792 19.0125 9.6C19.0125 9.95208 18.7271 10.2375 18.375 10.2375H17.525V11.5125H18.375C18.7271 11.5125 19.0125 11.7979 19.0125 12.15C19.0125 12.5021 18.7271 12.7875 18.375 12.7875H17.525V14.0625H18.375C18.7271 14.0625 19.0125 14.3479 19.0125 14.7C19.0125 15.0521 18.7271 15.3375 18.375 15.3375H17.525V20.8625H16.25V7.9C16.25 6.29722 16.25 5.49583 15.7521 4.99792C15.2542 4.5 14.4528 4.5 12.85 4.5H11.15C9.54727 4.5 8.74588 4.5 8.24797 4.99792C7.75005 5.49583 7.75005 6.29722 7.75005 7.9V20.8625H6.47505V15.3375H5.62505C5.27297 15.3375 4.98755 15.0521 4.98755 14.7C4.98755 14.3479 5.27297 14.0625 5.62505 14.0625H6.47505V12.7875H5.62505C5.27297 12.7875 4.98755 12.5021 4.98755 12.15C4.98755 11.7979 5.27297 11.5125 5.62505 11.5125H6.47505V10.2375H5.62505C5.27297 10.2375 4.98755 9.95208 4.98755 9.6C4.98755 9.24792 5.27297 8.9625 5.62505 8.9625H6.47505V7.9L6.47504 7.82392C6.47501 7.55707 6.47498 7.29825 6.47847 7.05056C5.55928 7.0545 5.05562 7.0859 4.68058 7.3365C4.49496 7.46053 4.33558 7.61991 4.21155 7.80553C3.92505 8.23431 3.92505 8.83121 3.92505 10.025V20.8625H3.50005C3.14797 20.8625 2.86255 21.1479 2.86255 21.5C2.86255 21.8521 3.14797 22.1375 3.50005 22.1375H20.5C20.8521 22.1375 21.1375 21.8521 21.1375 21.5C21.1375 21.1479 20.8521 20.8625 20.5 20.8625H20.075V10.025ZM12 6.4125C12.3521 6.4125 12.6375 6.69792 12.6375 7.05V8.1125H13.7C14.0521 8.1125 14.3375 8.39792 14.3375 8.75C14.3375 9.10208 14.0521 9.3875 13.7 9.3875H12.6375V10.45C12.6375 10.8021 12.3521 11.0875 12 11.0875C11.648 11.0875 11.3625 10.8021 11.3625 10.45V9.3875H10.3C9.94797 9.3875 9.66255 9.10208 9.66255 8.75C9.66255 8.39792 9.94797 8.1125 10.3 8.1125H11.3625V7.05C11.3625 6.69792 11.648 6.4125 12 6.4125ZM9.66255 13C9.66255 12.6479 9.94797 12.3625 10.3 12.3625H13.7C14.0521 12.3625 14.3375 12.6479 14.3375 13C14.3375 13.3521 14.0521 13.6375 13.7 13.6375H10.3C9.94797 13.6375 9.66255 13.3521 9.66255 13ZM9.66255 15.55C9.66255 15.1979 9.94797 14.9125 10.3 14.9125H13.7C14.0521 14.9125 14.3375 15.1979 14.3375 15.55C14.3375 15.9021 14.0521 16.1875 13.7 16.1875H10.3C9.94797 16.1875 9.66255 15.9021 9.66255 15.55ZM12 18.3125C12.3521 18.3125 12.6375 18.5979 12.6375 18.95V20.8625H11.3625V18.95C11.3625 18.5979 11.648 18.3125 12 18.3125Z" fill="#FF4E39"/>
</svg>
