<svg width="178" height="157" viewBox="0 0 178 157" fill="none" xmlns="http://www.w3.org/2000/svg">
<g clip-path="url(#clip0_2892_73)">
<rect width="178" height="230" rx="25" fill="#F8E6F9"/>
<path d="M135 -19C135 -19 53.9145 7.4786 23 48C-7.97613 88.6022 -12 174 -12 174" stroke="black" stroke-opacity="0.05"/>
<path d="M170 10C170 10 80.0889 38.5365 45.8095 82.2073C11.4618 125.965 7 218 7 218" stroke="black" stroke-opacity="0.05"/>
<path d="M188 48C188 48 106.914 74.4786 76 115C45.0239 155.602 41 241 41 241" stroke="black" stroke-opacity="0.05"/>
<path d="M218 87C218 87 136.914 113.479 106 154C75.0239 194.602 71 280 71 280" stroke="black" stroke-opacity="0.05"/>
<path d="M67.7632 27.6211V32.3827H63.0016V82.3795H76.096V71.6659H80.8576V82.3795H93.952V32.3827H89.1904V27.6211H67.7632ZM70.144 37.1443H72.5248V39.5251H70.144V37.1443ZM74.9056 37.1443H77.2864V39.5251H74.9056V37.1443ZM79.6672 37.1443H82.048V39.5251H79.6672V37.1443ZM84.4288 37.1443H86.8096V39.5251H84.4288V37.1443ZM96.3328 41.9059V46.6675H98.7136V49.0483H96.3328V51.4291H98.7136V53.8099H96.3328V56.1907H98.7136V58.5715H96.3328V60.9523H98.7136V63.3331H96.3328V65.7139H98.7136V68.0947H96.3328V70.4755H98.7136V72.8563H96.3328V75.2371H98.7136V77.6179H96.3328V82.3795H112.998V41.9059H96.3328ZM70.144 43.0963H72.5248V47.8579H70.144V43.0963ZM74.9056 43.0963H77.2864V47.8579H74.9056V43.0963ZM79.6672 43.0963H82.048V47.8579H79.6672V43.0963ZM84.4288 43.0963H86.8096V47.8579H84.4288V43.0963ZM101.094 46.6675H103.475V49.0483H101.094V46.6675ZM105.856 46.6675H108.237V49.0483H105.856V46.6675ZM70.144 50.2387H72.5248V55.0003H70.144V50.2387ZM74.9056 50.2387H77.2864V55.0003H74.9056V50.2387ZM79.6672 50.2387H82.048V55.0003H79.6672V50.2387ZM84.4288 50.2387H86.8096V55.0003H84.4288V50.2387ZM101.094 51.4291H103.475V53.8099H101.094V51.4291ZM105.856 51.4291H108.237V53.8099H105.856V51.4291ZM101.094 56.1907H103.475V58.5715H101.094V56.1907ZM105.856 56.1907H108.237V58.5715H105.856V56.1907ZM70.144 57.3811H72.5248V62.1427H70.144V57.3811ZM74.9056 57.3811H77.2864V62.1427H74.9056V57.3811ZM79.6672 57.3811H82.048V62.1427H79.6672V57.3811ZM84.4288 57.3811H86.8096V62.1427H84.4288V57.3811ZM101.094 60.9523H103.475V63.3331H101.094V60.9523ZM105.856 60.9523H108.237V63.3331H105.856V60.9523ZM70.144 64.5235H72.5248V69.2851H70.144V64.5235ZM74.9056 64.5235H77.2864V69.2851H74.9056V64.5235ZM79.6672 64.5235H82.048V69.2851H79.6672V64.5235ZM84.4288 64.5235H86.8096V69.2851H84.4288V64.5235ZM101.094 65.7139H103.475V68.0947H101.094V65.7139ZM105.856 65.7139H108.237V68.0947H105.856V65.7139ZM101.094 70.4755H103.475V72.8563H101.094V70.4755ZM105.856 70.4755H108.237V72.8563H105.856V70.4755ZM70.144 71.6659H72.5248V77.6179H70.144V71.6659ZM84.4288 71.6659H86.8096V77.6179H84.4288V71.6659ZM101.094 75.2371H103.475V77.6179H101.094V75.2371ZM105.856 75.2371H108.237V77.6179H105.856V75.2371Z" fill="#292D32"/>
<path d="M51.948 110.216C50.736 110.216 49.656 109.94 48.708 109.388C47.772 108.824 47.034 108.056 46.494 107.084C45.966 106.1 45.702 104.972 45.702 103.7C45.702 102.428 45.966 101.306 46.494 100.334C47.034 99.35 47.772 98.582 48.708 98.03C49.644 97.466 50.718 97.184 51.93 97.184C52.746 97.184 53.514 97.334 54.234 97.634C54.954 97.922 55.59 98.324 56.142 98.84C56.706 99.356 57.138 99.956 57.438 100.64L55.53 101.414C55.314 100.958 55.02 100.556 54.648 100.208C54.288 99.848 53.874 99.572 53.406 99.38C52.938 99.188 52.446 99.092 51.93 99.092C51.138 99.092 50.43 99.29 49.806 99.686C49.194 100.082 48.708 100.628 48.348 101.324C48 102.008 47.826 102.8 47.826 103.7C47.826 104.6 48 105.398 48.348 106.094C48.708 106.79 49.2 107.336 49.824 107.732C50.46 108.128 51.18 108.326 51.984 108.326C52.512 108.326 53.004 108.224 53.46 108.02C53.928 107.804 54.342 107.51 54.702 107.138C55.074 106.766 55.368 106.334 55.584 105.842L57.492 106.616C57.192 107.324 56.766 107.954 56.214 108.506C55.662 109.046 55.02 109.466 54.288 109.766C53.556 110.066 52.776 110.216 51.948 110.216ZM63.2638 110.216C62.3638 110.216 61.5598 110.018 60.8518 109.622C60.1558 109.214 59.6098 108.656 59.2138 107.948C58.8178 107.24 58.6198 106.424 58.6198 105.5C58.6198 104.576 58.8118 103.76 59.1958 103.052C59.5918 102.344 60.1378 101.792 60.8338 101.396C61.5298 100.988 62.3278 100.784 63.2278 100.784C64.1278 100.784 64.9258 100.988 65.6218 101.396C66.3178 101.792 66.8578 102.344 67.2418 103.052C67.6378 103.76 67.8358 104.576 67.8358 105.5C67.8358 106.424 67.6438 107.24 67.2598 107.948C66.8758 108.656 66.3358 109.214 65.6398 109.622C64.9438 110.018 64.1518 110.216 63.2638 110.216ZM63.2638 108.362C63.7558 108.362 64.1938 108.242 64.5778 108.002C64.9618 107.75 65.2618 107.414 65.4778 106.994C65.6938 106.562 65.8018 106.064 65.8018 105.5C65.8018 104.936 65.6878 104.444 65.4598 104.024C65.2438 103.592 64.9438 103.256 64.5598 103.016C64.1758 102.764 63.7318 102.638 63.2278 102.638C62.7238 102.638 62.2798 102.758 61.8958 102.998C61.5118 103.238 61.2118 103.574 60.9958 104.006C60.7798 104.438 60.6718 104.936 60.6718 105.5C60.6718 106.064 60.7798 106.562 60.9958 106.994C61.2238 107.414 61.5298 107.75 61.9138 108.002C62.3098 108.242 62.7598 108.362 63.2638 108.362ZM70.9148 105.212C70.9148 104.24 71.1008 103.442 71.4728 102.818C71.8448 102.194 72.3248 101.732 72.9128 101.432C73.5128 101.12 74.1368 100.964 74.7848 100.964V102.89C74.2328 102.89 73.7108 102.968 73.2188 103.124C72.7388 103.268 72.3488 103.508 72.0488 103.844C71.7488 104.18 71.5988 104.624 71.5988 105.176L70.9148 105.212ZM69.5828 110V101H71.5988V110H69.5828ZM76.2119 113.6V101H78.1019L78.2279 102.656V113.6H76.2119ZM81.0719 110.216C80.3159 110.216 79.6619 110.024 79.1099 109.64C78.5699 109.244 78.1559 108.692 77.8679 107.984C77.5799 107.276 77.4359 106.448 77.4359 105.5C77.4359 104.54 77.5799 103.712 77.8679 103.016C78.1559 102.308 78.5699 101.762 79.1099 101.378C79.6619 100.982 80.3159 100.784 81.0719 100.784C81.8879 100.784 82.5959 100.982 83.1959 101.378C83.8079 101.762 84.2819 102.308 84.6179 103.016C84.9659 103.712 85.1399 104.54 85.1399 105.5C85.1399 106.448 84.9659 107.276 84.6179 107.984C84.2819 108.692 83.8079 109.244 83.1959 109.64C82.5959 110.024 81.8879 110.216 81.0719 110.216ZM80.5679 108.38C81.0479 108.38 81.4739 108.26 81.8459 108.02C82.2179 107.768 82.5119 107.426 82.7279 106.994C82.9559 106.562 83.0699 106.064 83.0699 105.5C83.0699 104.936 82.9619 104.438 82.7459 104.006C82.5419 103.574 82.2539 103.238 81.8819 102.998C81.5099 102.758 81.0779 102.638 80.5859 102.638C80.1299 102.638 79.7219 102.758 79.3619 102.998C79.0019 103.238 78.7199 103.574 78.5159 104.006C78.3239 104.438 78.2279 104.936 78.2279 105.5C78.2279 106.064 78.3239 106.562 78.5159 106.994C78.7199 107.426 78.9959 107.768 79.3439 108.02C79.7039 108.26 80.1119 108.38 80.5679 108.38ZM91.0021 110.216C90.1021 110.216 89.2981 110.018 88.5901 109.622C87.8941 109.214 87.3481 108.656 86.9521 107.948C86.5561 107.24 86.3581 106.424 86.3581 105.5C86.3581 104.576 86.5501 103.76 86.9341 103.052C87.3301 102.344 87.8761 101.792 88.5721 101.396C89.2681 100.988 90.0661 100.784 90.9661 100.784C91.8661 100.784 92.6641 100.988 93.3601 101.396C94.0561 101.792 94.5961 102.344 94.9801 103.052C95.3761 103.76 95.5741 104.576 95.5741 105.5C95.5741 106.424 95.3821 107.24 94.9981 107.948C94.6141 108.656 94.0741 109.214 93.3781 109.622C92.6821 110.018 91.8901 110.216 91.0021 110.216ZM91.0021 108.362C91.4941 108.362 91.9321 108.242 92.3161 108.002C92.7001 107.75 93.0001 107.414 93.2161 106.994C93.4321 106.562 93.5401 106.064 93.5401 105.5C93.5401 104.936 93.4261 104.444 93.1981 104.024C92.9821 103.592 92.6821 103.256 92.2981 103.016C91.9141 102.764 91.4701 102.638 90.9661 102.638C90.4621 102.638 90.0181 102.758 89.6341 102.998C89.2501 103.238 88.9501 103.574 88.7341 104.006C88.5181 104.438 88.4101 104.936 88.4101 105.5C88.4101 106.064 88.5181 106.562 88.7341 106.994C88.9621 107.414 89.2681 107.75 89.6521 108.002C90.0481 108.242 90.4981 108.362 91.0021 108.362ZM98.6531 105.212C98.6531 104.24 98.8391 103.442 99.2111 102.818C99.5831 102.194 100.063 101.732 100.651 101.432C101.251 101.12 101.875 100.964 102.523 100.964V102.89C101.971 102.89 101.449 102.968 100.957 103.124C100.477 103.268 100.087 103.508 99.7871 103.844C99.4871 104.18 99.3371 104.624 99.3371 105.176L98.6531 105.212ZM97.3211 110V101H99.3371V110H97.3211ZM109.35 110L109.26 108.308V105.374C109.26 104.762 109.194 104.252 109.062 103.844C108.942 103.424 108.738 103.106 108.45 102.89C108.174 102.662 107.802 102.548 107.334 102.548C106.902 102.548 106.524 102.638 106.2 102.818C105.876 102.998 105.6 103.28 105.372 103.664L103.608 103.016C103.8 102.62 104.052 102.254 104.364 101.918C104.688 101.57 105.09 101.294 105.57 101.09C106.062 100.886 106.65 100.784 107.334 100.784C108.21 100.784 108.942 100.958 109.53 101.306C110.118 101.642 110.55 102.128 110.826 102.764C111.114 103.4 111.258 104.168 111.258 105.068L111.204 110H109.35ZM106.758 110.216C105.678 110.216 104.838 109.976 104.238 109.496C103.65 109.016 103.356 108.338 103.356 107.462C103.356 106.526 103.668 105.812 104.292 105.32C104.928 104.828 105.81 104.582 106.938 104.582H109.35V106.13H107.586C106.782 106.13 106.218 106.244 105.894 106.472C105.57 106.688 105.408 107 105.408 107.408C105.408 107.756 105.546 108.032 105.822 108.236C106.11 108.428 106.506 108.524 107.01 108.524C107.466 108.524 107.862 108.422 108.198 108.218C108.534 108.014 108.792 107.744 108.972 107.408C109.164 107.072 109.26 106.694 109.26 106.274H109.854C109.854 107.498 109.608 108.464 109.116 109.172C108.624 109.868 107.838 110.216 106.758 110.216ZM116.882 110.216C115.934 110.216 115.208 109.982 114.704 109.514C114.212 109.034 113.966 108.35 113.966 107.462V98.192H115.964V107.084C115.964 107.504 116.06 107.822 116.252 108.038C116.456 108.254 116.75 108.362 117.134 108.362C117.254 108.362 117.386 108.338 117.53 108.29C117.674 108.242 117.836 108.152 118.016 108.02L118.754 109.55C118.442 109.766 118.13 109.928 117.818 110.036C117.506 110.156 117.194 110.216 116.882 110.216ZM112.472 102.728V101H118.394V102.728H112.472ZM124.275 110.216C123.399 110.216 122.619 110.018 121.935 109.622C121.263 109.214 120.729 108.656 120.333 107.948C119.949 107.24 119.757 106.424 119.757 105.5C119.757 104.576 119.955 103.76 120.351 103.052C120.747 102.344 121.287 101.792 121.971 101.396C122.667 100.988 123.459 100.784 124.347 100.784C125.151 100.784 125.877 100.994 126.525 101.414C127.173 101.822 127.683 102.416 128.055 103.196C128.439 103.976 128.631 104.906 128.631 105.986H121.557L121.827 105.734C121.827 106.286 121.947 106.766 122.187 107.174C122.427 107.57 122.745 107.876 123.141 108.092C123.537 108.308 123.975 108.416 124.455 108.416C125.007 108.416 125.463 108.296 125.823 108.056C126.183 107.804 126.465 107.48 126.669 107.084L128.451 107.84C128.199 108.32 127.875 108.74 127.479 109.1C127.095 109.46 126.633 109.736 126.093 109.928C125.565 110.12 124.959 110.216 124.275 110.216ZM121.953 104.69L121.665 104.438H126.741L126.471 104.69C126.471 104.198 126.363 103.796 126.147 103.484C125.931 103.16 125.655 102.92 125.319 102.764C124.995 102.596 124.653 102.512 124.293 102.512C123.933 102.512 123.573 102.596 123.213 102.764C122.853 102.92 122.553 103.16 122.313 103.484C122.073 103.796 121.953 104.198 121.953 104.69ZM50.634 132.216C49.974 132.216 49.368 132.138 48.816 131.982C48.276 131.826 47.796 131.61 47.376 131.334C46.968 131.058 46.626 130.752 46.35 130.416C46.086 130.068 45.9 129.708 45.792 129.336L47.844 128.706C48 129.15 48.306 129.54 48.762 129.876C49.218 130.212 49.782 130.386 50.454 130.398C51.234 130.398 51.852 130.236 52.308 129.912C52.764 129.588 52.992 129.162 52.992 128.634C52.992 128.154 52.8 127.764 52.416 127.464C52.032 127.152 51.516 126.912 50.868 126.744L49.32 126.348C48.732 126.192 48.198 125.964 47.718 125.664C47.25 125.364 46.878 124.986 46.602 124.53C46.338 124.074 46.206 123.534 46.206 122.91C46.206 121.734 46.59 120.822 47.358 120.174C48.126 119.514 49.224 119.184 50.652 119.184C51.456 119.184 52.158 119.31 52.758 119.562C53.37 119.802 53.874 120.138 54.27 120.57C54.666 120.99 54.96 121.47 55.152 122.01L53.136 122.658C52.956 122.178 52.644 121.782 52.2 121.47C51.756 121.158 51.204 121.002 50.544 121.002C49.86 121.002 49.32 121.164 48.924 121.488C48.54 121.812 48.348 122.262 48.348 122.838C48.348 123.306 48.498 123.672 48.798 123.936C49.11 124.188 49.53 124.38 50.058 124.512L51.606 124.89C52.734 125.166 53.61 125.64 54.234 126.312C54.858 126.984 55.17 127.728 55.17 128.544C55.17 129.264 54.996 129.9 54.648 130.452C54.3 131.004 53.784 131.436 53.1 131.748C52.428 132.06 51.606 132.216 50.634 132.216ZM61.1163 132.216C60.2403 132.216 59.4603 132.018 58.7763 131.622C58.1043 131.214 57.5703 130.656 57.1743 129.948C56.7903 129.24 56.5983 128.424 56.5983 127.5C56.5983 126.576 56.7963 125.76 57.1923 125.052C57.5883 124.344 58.1283 123.792 58.8123 123.396C59.5083 122.988 60.3003 122.784 61.1883 122.784C61.9923 122.784 62.7183 122.994 63.3663 123.414C64.0143 123.822 64.5243 124.416 64.8963 125.196C65.2803 125.976 65.4723 126.906 65.4723 127.986H58.3983L58.6683 127.734C58.6683 128.286 58.7883 128.766 59.0283 129.174C59.2683 129.57 59.5863 129.876 59.9823 130.092C60.3783 130.308 60.8163 130.416 61.2963 130.416C61.8483 130.416 62.3043 130.296 62.6643 130.056C63.0243 129.804 63.3063 129.48 63.5103 129.084L65.2923 129.84C65.0403 130.32 64.7163 130.74 64.3203 131.1C63.9363 131.46 63.4743 131.736 62.9343 131.928C62.4063 132.12 61.8003 132.216 61.1163 132.216ZM58.7943 126.69L58.5063 126.438H63.5823L63.3123 126.69C63.3123 126.198 63.2043 125.796 62.9883 125.484C62.7723 125.16 62.4963 124.92 62.1603 124.764C61.8363 124.596 61.4943 124.512 61.1343 124.512C60.7743 124.512 60.4143 124.596 60.0543 124.764C59.6943 124.92 59.3943 125.16 59.1543 125.484C58.9143 125.796 58.7943 126.198 58.7943 126.69ZM68.3484 127.212C68.3484 126.24 68.5344 125.442 68.9064 124.818C69.2784 124.194 69.7584 123.732 70.3464 123.432C70.9464 123.12 71.5704 122.964 72.2184 122.964V124.89C71.6664 124.89 71.1444 124.968 70.6524 125.124C70.1724 125.268 69.7824 125.508 69.4824 125.844C69.1824 126.18 69.0324 126.624 69.0324 127.176L68.3484 127.212ZM67.0164 132V123H69.0324V132H67.0164ZM76.4535 132L79.9635 123H82.0515L78.3435 132H76.4535ZM76.3095 132L72.5835 123H74.6535L78.1815 132H76.3095ZM83.4373 132V123H85.4353V132H83.4373ZM84.4453 121.29C84.1213 121.29 83.8393 121.176 83.5993 120.948C83.3713 120.708 83.2573 120.426 83.2573 120.102C83.2573 119.778 83.3713 119.502 83.5993 119.274C83.8393 119.046 84.1213 118.932 84.4453 118.932C84.7693 118.932 85.0453 119.046 85.2733 119.274C85.5133 119.502 85.6333 119.778 85.6333 120.102C85.6333 120.426 85.5133 120.708 85.2733 120.948C85.0453 121.176 84.7693 121.29 84.4453 121.29ZM92.0233 132.216C91.0993 132.216 90.2833 132.018 89.5753 131.622C88.8673 131.214 88.3093 130.656 87.9013 129.948C87.5053 129.24 87.3073 128.424 87.3073 127.5C87.3073 126.576 87.5053 125.76 87.9013 125.052C88.3093 124.344 88.8613 123.792 89.5573 123.396C90.2653 122.988 91.0753 122.784 91.9873 122.784C92.8753 122.784 93.6793 123 94.3993 123.432C95.1193 123.852 95.6533 124.458 96.0013 125.25L94.1293 125.97C93.9373 125.574 93.6433 125.256 93.2473 125.016C92.8513 124.776 92.4013 124.656 91.8973 124.656C91.4053 124.656 90.9673 124.782 90.5833 125.034C90.1993 125.274 89.8993 125.61 89.6833 126.042C89.4673 126.462 89.3593 126.948 89.3593 127.5C89.3593 128.052 89.4673 128.544 89.6833 128.976C89.9113 129.396 90.2173 129.732 90.6013 129.984C90.9973 130.224 91.4413 130.344 91.9333 130.344C92.4373 130.344 92.8873 130.218 93.2833 129.966C93.6793 129.702 93.9733 129.348 94.1653 128.904L96.0373 129.624C95.6893 130.44 95.1553 131.076 94.4353 131.532C93.7273 131.988 92.9233 132.216 92.0233 132.216ZM101.616 132.216C100.74 132.216 99.9603 132.018 99.2763 131.622C98.6043 131.214 98.0703 130.656 97.6743 129.948C97.2903 129.24 97.0983 128.424 97.0983 127.5C97.0983 126.576 97.2963 125.76 97.6923 125.052C98.0883 124.344 98.6283 123.792 99.3123 123.396C100.008 122.988 100.8 122.784 101.688 122.784C102.492 122.784 103.218 122.994 103.866 123.414C104.514 123.822 105.024 124.416 105.396 125.196C105.78 125.976 105.972 126.906 105.972 127.986H98.8983L99.1683 127.734C99.1683 128.286 99.2883 128.766 99.5283 129.174C99.7683 129.57 100.086 129.876 100.482 130.092C100.878 130.308 101.316 130.416 101.796 130.416C102.348 130.416 102.804 130.296 103.164 130.056C103.524 129.804 103.806 129.48 104.01 129.084L105.792 129.84C105.54 130.32 105.216 130.74 104.82 131.1C104.436 131.46 103.974 131.736 103.434 131.928C102.906 132.12 102.3 132.216 101.616 132.216ZM99.2943 126.69L99.0063 126.438H104.082L103.812 126.69C103.812 126.198 103.704 125.796 103.488 125.484C103.272 125.16 102.996 124.92 102.66 124.764C102.336 124.596 101.994 124.512 101.634 124.512C101.274 124.512 100.914 124.596 100.554 124.764C100.194 124.92 99.8943 125.16 99.6543 125.484C99.4143 125.796 99.2943 126.198 99.2943 126.69ZM110.792 132.216C110.192 132.216 109.64 132.126 109.136 131.946C108.632 131.766 108.2 131.514 107.84 131.19C107.48 130.854 107.204 130.464 107.012 130.02L108.758 129.246C108.938 129.582 109.202 129.864 109.55 130.092C109.91 130.32 110.306 130.434 110.738 130.434C111.206 130.434 111.578 130.356 111.854 130.2C112.142 130.032 112.286 129.804 112.286 129.516C112.286 129.24 112.178 129.03 111.962 128.886C111.746 128.73 111.44 128.604 111.044 128.508L110.198 128.274C109.346 128.058 108.68 127.716 108.2 127.248C107.72 126.768 107.48 126.222 107.48 125.61C107.48 124.71 107.768 124.014 108.344 123.522C108.932 123.03 109.772 122.784 110.864 122.784C111.416 122.784 111.92 122.868 112.376 123.036C112.844 123.192 113.246 123.42 113.582 123.72C113.918 124.008 114.152 124.35 114.284 124.746L112.61 125.502C112.49 125.202 112.262 124.974 111.926 124.818C111.59 124.65 111.218 124.566 110.81 124.566C110.402 124.566 110.084 124.656 109.856 124.836C109.628 125.004 109.514 125.244 109.514 125.556C109.514 125.736 109.616 125.904 109.82 126.06C110.024 126.204 110.318 126.324 110.702 126.42L111.764 126.672C112.352 126.816 112.832 127.044 113.204 127.356C113.576 127.656 113.852 127.998 114.032 128.382C114.212 128.754 114.302 129.132 114.302 129.516C114.302 130.056 114.146 130.53 113.834 130.938C113.534 131.346 113.12 131.664 112.592 131.892C112.064 132.108 111.464 132.216 110.792 132.216Z" fill="#292D32"/>
</g>
<defs>
<clipPath id="clip0_2892_73">
<rect width="178" height="157" rx="25" fill="white"/>
</clipPath>
</defs>
</svg>
