<svg width="178" height="157" viewBox="0 0 178 157" fill="none" xmlns="http://www.w3.org/2000/svg">
<g clip-path="url(#clip0_2892_60)">
<rect width="178" height="230" rx="25" fill="#EAE6F9"/>
<path d="M135 -19C135 -19 53.9145 7.4786 23 48C-7.97613 88.6022 -12 174 -12 174" stroke="black" stroke-opacity="0.05"/>
<path d="M170 10C170 10 80.0889 38.5365 45.8095 82.2073C11.4618 125.965 7 218 7 218" stroke="black" stroke-opacity="0.05"/>
<path d="M188 48C188 48 106.914 74.4786 76 115C45.0239 155.602 41 241 41 241" stroke="black" stroke-opacity="0.05"/>
<path d="M218 87C218 87 136.914 113.479 106 154C75.0239 194.602 71 280 71 280" stroke="black" stroke-opacity="0.05"/>
<g clip-path="url(#clip1_2892_60)">
<path d="M76.5456 36.5049H56V39.0037H76.5456V36.5049Z" fill="#292D32"/>
<path d="M103.291 36.5049H82.7458V39.0037H103.291V36.5049Z" fill="#292D32"/>
<path d="M122.421 36.1133C122.278 35.911 122.048 35.791 121.801 35.791H117.739C116.696 35.791 115.727 36.3273 115.17 37.2091L110.741 44.246C110.278 44.9812 109.469 45.4277 108.6 45.4277H80.8055V36.5047H78.4857V45.4278H74.7586C72.0432 45.4278 69.5095 46.7899 68.0106 49.0541L60.1059 60.9939C58.8262 62.9283 58.7128 65.4088 59.8095 67.4513C60.907 69.4939 63.0386 70.7687 65.3576 70.7687H86.0615C87.8625 70.7687 89.527 69.8111 90.433 68.2557L96.4266 57.9628C96.9005 57.1477 97.7265 56.5997 98.6616 56.479L114.427 54.5888C115.56 54.4421 116.515 53.672 116.897 52.5953L122.516 36.8044C122.599 36.5721 122.563 36.314 122.421 36.1133ZM78.9637 59.3361H65.1145L70.6003 51.0492C71.5163 49.6653 73.0542 48.8385 74.7137 48.8385H78.9637V59.3361Z" fill="#292D32"/>
</g>
<path d="M71.224 110L66.31 97.4H68.398L73.438 110H71.224ZM61.162 110L66.184 97.4H68.29L63.376 110H61.162ZM63.52 106.904V105.05H71.062V106.904H63.52ZM74.8279 110V101H76.8259V110H74.8279ZM75.8359 99.29C75.5119 99.29 75.2299 99.176 74.9899 98.948C74.7619 98.708 74.6479 98.426 74.6479 98.102C74.6479 97.778 74.7619 97.502 74.9899 97.274C75.2299 97.046 75.5119 96.932 75.8359 96.932C76.1599 96.932 76.4359 97.046 76.6639 97.274C76.9039 97.502 77.0239 97.778 77.0239 98.102C77.0239 98.426 76.9039 98.708 76.6639 98.948C76.4359 99.176 76.1599 99.29 75.8359 99.29ZM80.5339 105.212C80.5339 104.24 80.7199 103.442 81.0919 102.818C81.4639 102.194 81.9439 101.732 82.5319 101.432C83.1319 101.12 83.7559 100.964 84.4039 100.964V102.89C83.8519 102.89 83.3299 102.968 82.8379 103.124C82.3579 103.268 81.9679 103.508 81.6679 103.844C81.3679 104.18 81.2179 104.624 81.2179 105.176L80.5339 105.212ZM79.2019 110V101H81.2179V110H79.2019ZM62.494 132V119.4H66.94C67.804 119.4 68.566 119.568 69.226 119.904C69.886 120.24 70.402 120.708 70.774 121.308C71.146 121.896 71.332 122.58 71.332 123.36C71.332 124.14 71.134 124.83 70.738 125.43C70.354 126.03 69.82 126.504 69.136 126.852C68.452 127.188 67.678 127.356 66.814 127.356H64.582V132H62.494ZM69.478 132L66.526 126.888L68.146 125.772L71.836 132H69.478ZM64.582 125.43H67.03C67.438 125.43 67.798 125.34 68.11 125.16C68.434 124.98 68.692 124.734 68.884 124.422C69.088 124.11 69.19 123.756 69.19 123.36C69.19 122.76 68.974 122.268 68.542 121.884C68.11 121.5 67.552 121.308 66.868 121.308H64.582V125.43ZM77.5909 132.216C76.7149 132.216 75.9349 132.018 75.2509 131.622C74.5789 131.214 74.0449 130.656 73.6489 129.948C73.2649 129.24 73.0729 128.424 73.0729 127.5C73.0729 126.576 73.2709 125.76 73.6669 125.052C74.0629 124.344 74.6029 123.792 75.2869 123.396C75.9829 122.988 76.7749 122.784 77.6629 122.784C78.4669 122.784 79.1929 122.994 79.8409 123.414C80.4889 123.822 80.9989 124.416 81.3709 125.196C81.7549 125.976 81.9469 126.906 81.9469 127.986H74.8729L75.1429 127.734C75.1429 128.286 75.2629 128.766 75.5029 129.174C75.7429 129.57 76.0609 129.876 76.4569 130.092C76.8529 130.308 77.2909 130.416 77.7709 130.416C78.3229 130.416 78.7789 130.296 79.1389 130.056C79.4989 129.804 79.7809 129.48 79.9849 129.084L81.7669 129.84C81.5149 130.32 81.1909 130.74 80.7949 131.1C80.4109 131.46 79.9489 131.736 79.4089 131.928C78.8809 132.12 78.2749 132.216 77.5909 132.216ZM75.2689 126.69L74.9809 126.438H80.0569L79.7869 126.69C79.7869 126.198 79.6789 125.796 79.4629 125.484C79.2469 125.16 78.9709 124.92 78.6349 124.764C78.3109 124.596 77.9689 124.512 77.6089 124.512C77.2489 124.512 76.8889 124.596 76.5289 124.764C76.1689 124.92 75.8689 125.16 75.6289 125.484C75.3889 125.796 75.2689 126.198 75.2689 126.69ZM86.767 132.216C86.167 132.216 85.615 132.126 85.111 131.946C84.607 131.766 84.175 131.514 83.815 131.19C83.455 130.854 83.179 130.464 82.987 130.02L84.733 129.246C84.913 129.582 85.177 129.864 85.525 130.092C85.885 130.32 86.281 130.434 86.713 130.434C87.181 130.434 87.553 130.356 87.829 130.2C88.117 130.032 88.261 129.804 88.261 129.516C88.261 129.24 88.153 129.03 87.937 128.886C87.721 128.73 87.415 128.604 87.019 128.508L86.173 128.274C85.321 128.058 84.655 127.716 84.175 127.248C83.695 126.768 83.455 126.222 83.455 125.61C83.455 124.71 83.743 124.014 84.319 123.522C84.907 123.03 85.747 122.784 86.839 122.784C87.391 122.784 87.895 122.868 88.351 123.036C88.819 123.192 89.221 123.42 89.557 123.72C89.893 124.008 90.127 124.35 90.259 124.746L88.585 125.502C88.465 125.202 88.237 124.974 87.901 124.818C87.565 124.65 87.193 124.566 86.785 124.566C86.377 124.566 86.059 124.656 85.831 124.836C85.603 125.004 85.489 125.244 85.489 125.556C85.489 125.736 85.591 125.904 85.795 126.06C85.999 126.204 86.293 126.324 86.677 126.42L87.739 126.672C88.327 126.816 88.807 127.044 89.179 127.356C89.551 127.656 89.827 127.998 90.007 128.382C90.187 128.754 90.277 129.132 90.277 129.516C90.277 130.056 90.121 130.53 89.809 130.938C89.509 131.346 89.095 131.664 88.567 131.892C88.039 132.108 87.439 132.216 86.767 132.216ZM96.0878 132.216C95.1638 132.216 94.3478 132.018 93.6398 131.622C92.9318 131.214 92.3738 130.656 91.9658 129.948C91.5698 129.24 91.3718 128.424 91.3718 127.5C91.3718 126.576 91.5698 125.76 91.9658 125.052C92.3738 124.344 92.9258 123.792 93.6218 123.396C94.3298 122.988 95.1398 122.784 96.0518 122.784C96.9398 122.784 97.7438 123 98.4638 123.432C99.1838 123.852 99.7178 124.458 100.066 125.25L98.1938 125.97C98.0018 125.574 97.7078 125.256 97.3118 125.016C96.9158 124.776 96.4658 124.656 95.9618 124.656C95.4698 124.656 95.0318 124.782 94.6478 125.034C94.2638 125.274 93.9638 125.61 93.7478 126.042C93.5318 126.462 93.4238 126.948 93.4238 127.5C93.4238 128.052 93.5318 128.544 93.7478 128.976C93.9758 129.396 94.2818 129.732 94.6658 129.984C95.0618 130.224 95.5058 130.344 95.9978 130.344C96.5018 130.344 96.9518 130.218 97.3478 129.966C97.7438 129.702 98.0378 129.348 98.2298 128.904L100.102 129.624C99.7538 130.44 99.2198 131.076 98.4998 131.532C97.7918 131.988 96.9878 132.216 96.0878 132.216ZM107.697 132L107.589 130.344V123H109.587V132H107.697ZM101.469 127.608V123H103.485V127.608H101.469ZM103.485 127.608C103.485 128.316 103.569 128.868 103.737 129.264C103.905 129.66 104.133 129.936 104.421 130.092C104.721 130.248 105.063 130.326 105.447 130.326C106.131 130.338 106.659 130.116 107.031 129.66C107.403 129.204 107.589 128.55 107.589 127.698H108.345C108.345 128.646 108.201 129.462 107.913 130.146C107.637 130.818 107.241 131.334 106.725 131.694C106.221 132.042 105.609 132.216 104.889 132.216C104.181 132.216 103.569 132.072 103.053 131.784C102.549 131.496 102.159 131.046 101.883 130.434C101.607 129.822 101.469 129.036 101.469 128.076V127.608H103.485ZM115.841 132.216C114.965 132.216 114.185 132.018 113.501 131.622C112.829 131.214 112.295 130.656 111.899 129.948C111.515 129.24 111.323 128.424 111.323 127.5C111.323 126.576 111.521 125.76 111.917 125.052C112.313 124.344 112.853 123.792 113.537 123.396C114.233 122.988 115.025 122.784 115.913 122.784C116.717 122.784 117.443 122.994 118.091 123.414C118.739 123.822 119.249 124.416 119.621 125.196C120.005 125.976 120.197 126.906 120.197 127.986H113.123L113.393 127.734C113.393 128.286 113.513 128.766 113.753 129.174C113.993 129.57 114.311 129.876 114.707 130.092C115.103 130.308 115.541 130.416 116.021 130.416C116.573 130.416 117.029 130.296 117.389 130.056C117.749 129.804 118.031 129.48 118.235 129.084L120.017 129.84C119.765 130.32 119.441 130.74 119.045 131.1C118.661 131.46 118.199 131.736 117.659 131.928C117.131 132.12 116.525 132.216 115.841 132.216ZM113.519 126.69L113.231 126.438H118.307L118.037 126.69C118.037 126.198 117.929 125.796 117.713 125.484C117.497 125.16 117.221 124.92 116.885 124.764C116.561 124.596 116.219 124.512 115.859 124.512C115.499 124.512 115.139 124.596 114.779 124.764C114.419 124.92 114.119 125.16 113.879 125.484C113.639 125.796 113.519 126.198 113.519 126.69Z" fill="#292D32"/>
</g>
<defs>
<clipPath id="clip0_2892_60">
<rect width="178" height="157" rx="25" fill="white"/>
</clipPath>
<clipPath id="clip1_2892_60">
<rect width="66.56" height="66.56" fill="white" transform="translate(56 20)"/>
</clipPath>
</defs>
</svg>
