<svg width="178" height="157" viewBox="0 0 178 157" fill="none" xmlns="http://www.w3.org/2000/svg">
<g clip-path="url(#clip0_2892_67)">
<rect width="178" height="230" rx="25" fill="#FFE3DF"/>
<path d="M137 -11C137 -11 55.9145 15.4786 25 56C-5.97613 96.6022 -10 182 -10 182" stroke="black" stroke-opacity="0.05"/>
<path d="M178 0C178 0 88.0889 31.5548 53.8095 79.8446C19.4618 128.231 15 230 15 230" stroke="black" stroke-opacity="0.05"/>
<path d="M202 37C202 37 120.914 63.4786 90 104C59.0239 144.602 55 230 55 230" stroke="black" stroke-opacity="0.05"/>
<path d="M236 75C236 75 154.914 101.479 124 142C93.0239 182.602 89 268 89 268" stroke="black" stroke-opacity="0.05"/>
<path d="M90.28 22C89.575 22 89 22.575 89 23.28V25.84C89 26.545 89.575 27.12 90.28 27.12C90.99 27.12 91.56 26.545 91.56 25.84V23.28C91.56 22.575 90.99 22 90.28 22ZM81.24 25.76C80.915 25.76 80.57 25.87 80.32 26.12C79.82 26.62 79.82 27.42 80.32 27.92L82.12 29.76C82.37 30.01 82.71 30.12 83.04 30.12C83.37 30.12 83.71 30.01 83.96 29.76C84.46 29.26 84.46 28.42 83.96 27.92L82.12 26.12C81.87 25.87 81.565 25.76 81.24 25.76ZM99.32 25.76C98.995 25.76 98.69 25.87 98.44 26.12L96.6 27.92C96.1 28.42 96.1 29.26 96.6 29.76C96.85 30.01 97.19 30.12 97.52 30.12C97.85 30.12 98.19 30.01 98.44 29.76L100.24 27.92C100.74 27.42 100.74 26.62 100.24 26.12C99.99 25.87 99.645 25.76 99.32 25.76ZM90.28 29.68C87.455 29.68 85.16 31.975 85.16 34.8V36.08H95.4V34.8C95.4 31.975 93.105 29.68 90.28 29.68ZM77.48 33.52C76.775 33.52 76.2 34.095 76.2 34.8C76.2 35.505 76.775 36.08 77.48 36.08H80.04C80.745 36.08 81.32 35.505 81.32 34.8C81.32 34.095 80.745 33.52 80.04 33.52H77.48ZM100.52 33.52C99.81 33.52 99.24 34.095 99.24 34.8C99.24 35.505 99.81 36.08 100.52 36.08H103.08C103.79 36.08 104.36 35.505 104.36 34.8C104.36 34.095 103.79 33.52 103.08 33.52H100.52ZM60.56 38.64C58.605 38.64 57 40.22 57 42.16V73.52C57 75.46 58.605 77.04 60.56 77.04H65.96C65.96 81.275 69.405 84.72 73.64 84.72C77.875 84.72 81.32 81.275 81.32 77.04H99.24C99.24 81.275 102.685 84.72 106.92 84.72C111.155 84.72 114.6 81.275 114.6 77.04H117.44C119.395 77.04 121 75.46 121 73.52V64.56C121 62.095 119.245 59.585 119.08 59.36L107.52 41.48C107.49 41.435 107.435 41.36 107.4 41.32L107.16 41.08C106.17 39.89 105.18 38.64 103.04 38.64H60.56ZM97.96 45.04H106.72L115.88 59.12H97.96V45.04ZM74.92 48.88H77.48V54H82.6V56.56H77.48V61.68H74.92V56.56H69.8V54H74.92V48.88ZM73.64 71.92C76.465 71.92 78.76 74.215 78.76 77.04C78.76 79.865 76.465 82.16 73.64 82.16C70.815 82.16 68.52 79.865 68.52 77.04C68.52 74.215 70.815 71.92 73.64 71.92ZM106.92 71.92C109.745 71.92 112.04 74.215 112.04 77.04C112.04 79.865 109.745 82.16 106.92 82.16C104.095 82.16 101.8 79.865 101.8 77.04C101.8 74.215 104.095 71.92 106.92 71.92Z" fill="#292D32"/>
<path d="M56.494 115V102.4H60.94C61.804 102.4 62.566 102.568 63.226 102.904C63.886 103.24 64.402 103.708 64.774 104.308C65.146 104.896 65.332 105.58 65.332 106.36C65.332 107.14 65.134 107.83 64.738 108.43C64.354 109.03 63.82 109.504 63.136 109.852C62.452 110.188 61.678 110.356 60.814 110.356H58.582V115H56.494ZM63.478 115L60.526 109.888L62.146 108.772L65.836 115H63.478ZM58.582 108.43H61.03C61.438 108.43 61.798 108.34 62.11 108.16C62.434 107.98 62.692 107.734 62.884 107.422C63.088 107.11 63.19 106.756 63.19 106.36C63.19 105.76 62.974 105.268 62.542 104.884C62.11 104.5 61.552 104.308 60.868 104.308H58.582V108.43ZM71.7169 115.216C70.8169 115.216 70.0129 115.018 69.3049 114.622C68.6089 114.214 68.0629 113.656 67.6669 112.948C67.2709 112.24 67.0729 111.424 67.0729 110.5C67.0729 109.576 67.2649 108.76 67.6489 108.052C68.0449 107.344 68.5909 106.792 69.2869 106.396C69.9829 105.988 70.7809 105.784 71.6809 105.784C72.5809 105.784 73.3789 105.988 74.0749 106.396C74.7709 106.792 75.3109 107.344 75.6949 108.052C76.0909 108.76 76.2889 109.576 76.2889 110.5C76.2889 111.424 76.0969 112.24 75.7129 112.948C75.3289 113.656 74.7889 114.214 74.0929 114.622C73.3969 115.018 72.6049 115.216 71.7169 115.216ZM71.7169 113.362C72.2089 113.362 72.6469 113.242 73.0309 113.002C73.4149 112.75 73.7149 112.414 73.9309 111.994C74.1469 111.562 74.2549 111.064 74.2549 110.5C74.2549 109.936 74.1409 109.444 73.9129 109.024C73.6969 108.592 73.3969 108.256 73.0129 108.016C72.6289 107.764 72.1849 107.638 71.6809 107.638C71.1769 107.638 70.7329 107.758 70.3489 107.998C69.9649 108.238 69.6649 108.574 69.4489 109.006C69.2329 109.438 69.1249 109.936 69.1249 110.5C69.1249 111.064 69.2329 111.562 69.4489 111.994C69.6769 112.414 69.9829 112.75 70.3669 113.002C70.7629 113.242 71.2129 113.362 71.7169 113.362ZM83.5259 115L83.4359 113.308V110.374C83.4359 109.762 83.3699 109.252 83.2379 108.844C83.1179 108.424 82.9139 108.106 82.6259 107.89C82.3499 107.662 81.9779 107.548 81.5099 107.548C81.0779 107.548 80.6999 107.638 80.3759 107.818C80.0519 107.998 79.7759 108.28 79.5479 108.664L77.7839 108.016C77.9759 107.62 78.2279 107.254 78.5399 106.918C78.8639 106.57 79.2659 106.294 79.7459 106.09C80.2379 105.886 80.8259 105.784 81.5099 105.784C82.3859 105.784 83.1179 105.958 83.7059 106.306C84.2939 106.642 84.7259 107.128 85.0019 107.764C85.2899 108.4 85.4339 109.168 85.4339 110.068L85.3799 115H83.5259ZM80.9339 115.216C79.8539 115.216 79.0139 114.976 78.4139 114.496C77.8259 114.016 77.5319 113.338 77.5319 112.462C77.5319 111.526 77.8439 110.812 78.4679 110.32C79.1039 109.828 79.9859 109.582 81.1139 109.582H83.5259V111.13H81.7619C80.9579 111.13 80.3939 111.244 80.0699 111.472C79.7459 111.688 79.5839 112 79.5839 112.408C79.5839 112.756 79.7219 113.032 79.9979 113.236C80.2859 113.428 80.6819 113.524 81.1859 113.524C81.6419 113.524 82.0379 113.422 82.3739 113.218C82.7099 113.014 82.9679 112.744 83.1479 112.408C83.3399 112.072 83.4359 111.694 83.4359 111.274H84.0299C84.0299 112.498 83.7839 113.464 83.2919 114.172C82.7999 114.868 82.0139 115.216 80.9339 115.216ZM93.9734 115L93.8834 113.326V102.4H95.8814V115H93.9734ZM91.0394 115.216C90.2234 115.216 89.5094 115.024 88.8974 114.64C88.2974 114.244 87.8234 113.692 87.4754 112.984C87.1394 112.276 86.9714 111.448 86.9714 110.5C86.9714 109.54 87.1394 108.712 87.4754 108.016C87.8234 107.308 88.2974 106.762 88.8974 106.378C89.5094 105.982 90.2234 105.784 91.0394 105.784C91.7954 105.784 92.4434 105.982 92.9834 106.378C93.5354 106.762 93.9554 107.308 94.2434 108.016C94.5314 108.712 94.6754 109.54 94.6754 110.5C94.6754 111.448 94.5314 112.276 94.2434 112.984C93.9554 113.692 93.5354 114.244 92.9834 114.64C92.4434 115.024 91.7954 115.216 91.0394 115.216ZM91.5434 113.38C91.9994 113.38 92.4014 113.26 92.7494 113.02C93.1094 112.768 93.3854 112.426 93.5774 111.994C93.7814 111.562 93.8834 111.064 93.8834 110.5C93.8834 109.936 93.7814 109.438 93.5774 109.006C93.3854 108.574 93.1094 108.238 92.7494 107.998C92.4014 107.758 91.9934 107.638 91.5254 107.638C91.0454 107.638 90.6194 107.758 90.2474 107.998C89.8754 108.238 89.5814 108.574 89.3654 109.006C89.1614 109.438 89.0534 109.936 89.0414 110.5C89.0534 111.064 89.1614 111.562 89.3654 111.994C89.5814 112.426 89.8754 112.768 90.2474 113.02C90.6314 113.26 91.0634 113.38 91.5434 113.38ZM56.494 137V124.4H60.94C61.804 124.4 62.566 124.568 63.226 124.904C63.886 125.24 64.402 125.708 64.774 126.308C65.146 126.896 65.332 127.58 65.332 128.36C65.332 129.14 65.134 129.83 64.738 130.43C64.354 131.03 63.82 131.504 63.136 131.852C62.452 132.188 61.678 132.356 60.814 132.356H58.582V137H56.494ZM63.478 137L60.526 131.888L62.146 130.772L65.836 137H63.478ZM58.582 130.43H61.03C61.438 130.43 61.798 130.34 62.11 130.16C62.434 129.98 62.692 129.734 62.884 129.422C63.088 129.11 63.19 128.756 63.19 128.36C63.19 127.76 62.974 127.268 62.542 126.884C62.11 126.5 61.552 126.308 60.868 126.308H58.582V130.43ZM71.5909 137.216C70.7149 137.216 69.9349 137.018 69.2509 136.622C68.5789 136.214 68.0449 135.656 67.6489 134.948C67.2649 134.24 67.0729 133.424 67.0729 132.5C67.0729 131.576 67.2709 130.76 67.6669 130.052C68.0629 129.344 68.6029 128.792 69.2869 128.396C69.9829 127.988 70.7749 127.784 71.6629 127.784C72.4669 127.784 73.1929 127.994 73.8409 128.414C74.4889 128.822 74.9989 129.416 75.3709 130.196C75.7549 130.976 75.9469 131.906 75.9469 132.986H68.8729L69.1429 132.734C69.1429 133.286 69.2629 133.766 69.5029 134.174C69.7429 134.57 70.0609 134.876 70.4569 135.092C70.8529 135.308 71.2909 135.416 71.7709 135.416C72.3229 135.416 72.7789 135.296 73.1389 135.056C73.4989 134.804 73.7809 134.48 73.9849 134.084L75.7669 134.84C75.5149 135.32 75.1909 135.74 74.7949 136.1C74.4109 136.46 73.9489 136.736 73.4089 136.928C72.8809 137.12 72.2749 137.216 71.5909 137.216ZM69.2689 131.69L68.9809 131.438H74.0569L73.7869 131.69C73.7869 131.198 73.6789 130.796 73.4629 130.484C73.2469 130.16 72.9709 129.92 72.6349 129.764C72.3109 129.596 71.9689 129.512 71.6089 129.512C71.2489 129.512 70.8889 129.596 70.5289 129.764C70.1689 129.92 69.8689 130.16 69.6289 130.484C69.3889 130.796 69.2689 131.198 69.2689 131.69ZM80.767 137.216C80.167 137.216 79.615 137.126 79.111 136.946C78.607 136.766 78.175 136.514 77.815 136.19C77.455 135.854 77.179 135.464 76.987 135.02L78.733 134.246C78.913 134.582 79.177 134.864 79.525 135.092C79.885 135.32 80.281 135.434 80.713 135.434C81.181 135.434 81.553 135.356 81.829 135.2C82.117 135.032 82.261 134.804 82.261 134.516C82.261 134.24 82.153 134.03 81.937 133.886C81.721 133.73 81.415 133.604 81.019 133.508L80.173 133.274C79.321 133.058 78.655 132.716 78.175 132.248C77.695 131.768 77.455 131.222 77.455 130.61C77.455 129.71 77.743 129.014 78.319 128.522C78.907 128.03 79.747 127.784 80.839 127.784C81.391 127.784 81.895 127.868 82.351 128.036C82.819 128.192 83.221 128.42 83.557 128.72C83.893 129.008 84.127 129.35 84.259 129.746L82.585 130.502C82.465 130.202 82.237 129.974 81.901 129.818C81.565 129.65 81.193 129.566 80.785 129.566C80.377 129.566 80.059 129.656 79.831 129.836C79.603 130.004 79.489 130.244 79.489 130.556C79.489 130.736 79.591 130.904 79.795 131.06C79.999 131.204 80.293 131.324 80.677 131.42L81.739 131.672C82.327 131.816 82.807 132.044 83.179 132.356C83.551 132.656 83.827 132.998 84.007 133.382C84.187 133.754 84.277 134.132 84.277 134.516C84.277 135.056 84.121 135.53 83.809 135.938C83.509 136.346 83.095 136.664 82.567 136.892C82.039 137.108 81.439 137.216 80.767 137.216ZM90.0878 137.216C89.1638 137.216 88.3478 137.018 87.6398 136.622C86.9318 136.214 86.3738 135.656 85.9658 134.948C85.5698 134.24 85.3718 133.424 85.3718 132.5C85.3718 131.576 85.5698 130.76 85.9658 130.052C86.3738 129.344 86.9258 128.792 87.6218 128.396C88.3298 127.988 89.1398 127.784 90.0518 127.784C90.9398 127.784 91.7438 128 92.4638 128.432C93.1838 128.852 93.7178 129.458 94.0658 130.25L92.1938 130.97C92.0018 130.574 91.7078 130.256 91.3118 130.016C90.9158 129.776 90.4658 129.656 89.9618 129.656C89.4698 129.656 89.0318 129.782 88.6478 130.034C88.2638 130.274 87.9638 130.61 87.7478 131.042C87.5318 131.462 87.4238 131.948 87.4238 132.5C87.4238 133.052 87.5318 133.544 87.7478 133.976C87.9758 134.396 88.2818 134.732 88.6658 134.984C89.0618 135.224 89.5058 135.344 89.9978 135.344C90.5018 135.344 90.9518 135.218 91.3478 134.966C91.7438 134.702 92.0378 134.348 92.2298 133.904L94.1018 134.624C93.7538 135.44 93.2198 136.076 92.4998 136.532C91.7918 136.988 90.9878 137.216 90.0878 137.216ZM101.697 137L101.589 135.344V128H103.587V137H101.697ZM95.4688 132.608V128H97.4848V132.608H95.4688ZM97.4848 132.608C97.4848 133.316 97.5688 133.868 97.7368 134.264C97.9048 134.66 98.1328 134.936 98.4208 135.092C98.7208 135.248 99.0628 135.326 99.4468 135.326C100.131 135.338 100.659 135.116 101.031 134.66C101.403 134.204 101.589 133.55 101.589 132.698H102.345C102.345 133.646 102.201 134.462 101.913 135.146C101.637 135.818 101.241 136.334 100.725 136.694C100.221 137.042 99.6088 137.216 98.8888 137.216C98.1808 137.216 97.5688 137.072 97.0528 136.784C96.5488 136.496 96.1588 136.046 95.8828 135.434C95.6068 134.822 95.4688 134.036 95.4688 133.076V132.608H97.4848ZM109.841 137.216C108.965 137.216 108.185 137.018 107.501 136.622C106.829 136.214 106.295 135.656 105.899 134.948C105.515 134.24 105.323 133.424 105.323 132.5C105.323 131.576 105.521 130.76 105.917 130.052C106.313 129.344 106.853 128.792 107.537 128.396C108.233 127.988 109.025 127.784 109.913 127.784C110.717 127.784 111.443 127.994 112.091 128.414C112.739 128.822 113.249 129.416 113.621 130.196C114.005 130.976 114.197 131.906 114.197 132.986H107.123L107.393 132.734C107.393 133.286 107.513 133.766 107.753 134.174C107.993 134.57 108.311 134.876 108.707 135.092C109.103 135.308 109.541 135.416 110.021 135.416C110.573 135.416 111.029 135.296 111.389 135.056C111.749 134.804 112.031 134.48 112.235 134.084L114.017 134.84C113.765 135.32 113.441 135.74 113.045 136.1C112.661 136.46 112.199 136.736 111.659 136.928C111.131 137.12 110.525 137.216 109.841 137.216ZM107.519 131.69L107.231 131.438H112.307L112.037 131.69C112.037 131.198 111.929 130.796 111.713 130.484C111.497 130.16 111.221 129.92 110.885 129.764C110.561 129.596 110.219 129.512 109.859 129.512C109.499 129.512 109.139 129.596 108.779 129.764C108.419 129.92 108.119 130.16 107.879 130.484C107.639 130.796 107.519 131.198 107.519 131.69Z" fill="#292D32"/>
</g>
<defs>
<clipPath id="clip0_2892_67">
<rect width="178" height="157" rx="25" fill="white"/>
</clipPath>
</defs>
</svg>
