<svg width="111" height="111" viewBox="0 0 111 111" fill="none" xmlns="http://www.w3.org/2000/svg">
<rect width="111" height="111" rx="14" fill="white"/>
<path d="M63.7938 95.7759H51.9912V98.7265H63.7938V95.7759Z" fill="#FF4E39"/>
<path d="M99.2017 30.8611H84.4484V20.5339C84.4484 16.4664 81.1392 13.1572 77.0718 13.1572H38.7133C34.6459 13.1572 31.3367 16.4664 31.3367 20.5339V51.5157H16.5834C14.1433 51.5157 12.1575 53.5015 12.1575 55.9417V73.6456C12.1575 76.0857 14.1433 78.0715 16.5834 78.0715H26.4873L31.3367 81.1019V97.2508C31.3367 101.318 34.6459 104.627 38.7133 104.627H77.0718C81.1392 104.627 84.4484 101.318 84.4484 97.2508V60.4473L89.2978 57.417H99.2017C101.642 57.417 103.628 55.4312 103.628 52.991V35.2871C103.628 32.8469 101.642 30.8611 99.2017 30.8611ZM38.7133 16.1079H77.0718C79.512 16.1079 81.4977 18.0937 81.4977 20.5339V22.0092H34.2873V20.5339C34.2873 18.0937 36.2731 16.1079 38.7133 16.1079ZM16.5834 75.1209C15.7705 75.1209 15.1081 74.4585 15.1081 73.6456V55.9417C15.1081 55.1287 15.7705 54.4663 16.5834 54.4663H51.9912C52.8042 54.4663 53.4666 55.1287 53.4666 55.9417V73.6456C53.4666 74.4585 52.8042 75.1209 51.9912 75.1209H37.238V81.3113L27.3341 75.1209H16.5834ZM77.0718 101.677H38.7133C36.2731 101.677 34.2873 99.6909 34.2873 97.2508V92.8248H81.4977V97.2508C81.4977 99.6909 79.512 101.677 77.0718 101.677ZM81.4977 89.8741H34.2873V82.946L40.1886 86.6343V78.0715H51.9912C54.4314 78.0715 56.4172 76.0857 56.4172 73.6456V55.9417C56.4172 53.5015 54.4314 51.5157 51.9912 51.5157H34.2873V24.9598H81.4977V30.8611H63.7938C61.3537 30.8611 59.3679 32.8469 59.3679 35.2871V52.991C59.3679 55.4312 61.3537 57.417 63.7938 57.417H75.5965V65.9798L81.4977 62.2915V89.8741ZM100.677 52.991C100.677 53.8039 100.015 54.4663 99.2017 54.4663H88.451L78.5471 60.6568V54.4663H63.7938C62.9809 54.4663 62.3185 53.8039 62.3185 52.991V35.2871C62.3185 34.4742 62.9809 33.8118 63.7938 33.8118H99.2017C100.015 33.8118 100.677 34.4742 100.677 35.2871V52.991Z" fill="#FF4E39"/>
<path d="M22.4847 60.3676C23.2976 60.3676 23.96 61.0301 23.96 61.843H26.9107C26.9107 59.4028 24.9249 57.417 22.4847 57.417C20.0445 57.417 18.0587 59.4028 18.0587 61.843C18.0587 64.2832 20.0445 66.2689 22.4847 66.2689C23.2976 66.2689 23.96 66.9314 23.96 67.7443C23.96 68.5572 23.2976 69.2196 22.4847 69.2196C21.6718 69.2196 21.0094 68.5572 21.0094 67.7443H18.0587C18.0587 70.1845 20.0445 72.1702 22.4847 72.1702C24.9249 72.1702 26.9107 70.1845 26.9107 67.7443C26.9107 65.3041 24.9249 63.3183 22.4847 63.3183C21.6718 63.3183 21.0094 62.6559 21.0094 61.843C21.0094 61.0301 21.6718 60.3676 22.4847 60.3676Z" fill="#FF4E39"/>
<path d="M46.0899 69.2196C45.277 69.2196 44.6146 68.5572 44.6146 67.7443H41.6639C41.6639 70.1845 43.6497 72.1702 46.0899 72.1702C48.5301 72.1702 50.5159 70.1845 50.5159 67.7443C50.5159 65.3041 48.5301 63.3183 46.0899 63.3183C45.277 63.3183 44.6146 62.6559 44.6146 61.843C44.6146 61.0301 45.277 60.3676 46.0899 60.3676C46.9028 60.3676 47.5652 61.0301 47.5652 61.843H50.5159C50.5159 59.4028 48.5301 57.417 46.0899 57.417C43.6497 57.417 41.6639 59.4028 41.6639 61.843C41.6639 64.2832 43.6497 66.2689 46.0899 66.2689C46.9028 66.2689 47.5652 66.9314 47.5652 67.7443C47.5652 68.5572 46.9028 69.2196 46.0899 69.2196Z" fill="#FF4E39"/>
<path d="M40.1886 64.7936C40.1886 60.7261 37.5419 57.417 34.2873 57.417C31.0327 57.417 28.386 60.7261 28.386 64.7936C28.386 68.8611 31.0327 72.1702 34.2873 72.1702C37.5419 72.1702 40.1886 68.8611 40.1886 64.7936ZM34.2873 69.2196C32.688 69.2196 31.3366 67.1925 31.3366 64.7936C31.3366 62.3947 32.688 60.3676 34.2873 60.3676C35.8865 60.3676 37.2379 62.3947 37.2379 64.7936C37.2379 67.1925 35.8865 69.2196 34.2873 69.2196Z" fill="#FF4E39"/>
<path d="M97.7263 36.7627H65.2692V39.7133H97.7263V36.7627Z" fill="#FF4E39"/>
<path d="M91.825 42.6641H65.2692V45.6147H91.825V42.6641Z" fill="#FF4E39"/>
<path d="M97.7263 42.6641H94.7756V45.6147H97.7263V42.6641Z" fill="#FF4E39"/>
<path d="M82.973 48.5654H80.0223V51.5161H82.973V48.5654Z" fill="#FF4E39"/>
<path d="M91.8249 48.5654H88.8743V51.5161H91.8249V48.5654Z" fill="#FF4E39"/>
<path d="M74.1211 48.5654H71.1704V51.5161H74.1211V48.5654Z" fill="#FF4E39"/>
</svg>
