<svg width="178" height="157" viewBox="0 0 178 157" fill="none" xmlns="http://www.w3.org/2000/svg">
<g clip-path="url(#clip0_2892_54)">
<rect width="178" height="230" rx="25" fill="#F9FFBA"/>
<path d="M137 -11C137 -11 55.9145 15.4786 25 56C-5.97613 96.6022 -10 182 -10 182" stroke="black" stroke-opacity="0.05"/>
<path d="M178 0C178 0 88.0889 31.5548 53.8095 79.8446C19.4618 128.231 15 230 15 230" stroke="black" stroke-opacity="0.05"/>
<path d="M202 37C202 37 120.914 63.4786 90 104C59.0239 144.602 55 230 55 230" stroke="black" stroke-opacity="0.05"/>
<path d="M236 75C236 75 154.914 101.479 124 142C93.0239 182.602 89 268 89 268" stroke="black" stroke-opacity="0.05"/>
<path d="M66.4564 80.2077H104.134C106.275 80.2077 108.329 79.357 109.843 77.8429C111.357 76.3288 112.208 74.2752 112.208 72.1339V34.4561C112.208 32.3148 111.357 30.2612 109.843 28.7471C108.329 27.233 106.275 26.3823 104.134 26.3823H66.4564C64.3151 26.3823 62.2615 27.233 60.7473 28.7471C59.2332 30.2612 58.3826 32.3148 58.3826 34.4561V72.1339C58.3826 74.2752 59.2332 76.3288 60.7473 77.8429C62.2615 79.357 64.3151 80.2077 66.4564 80.2077ZM104.134 74.8251H66.4564C65.7426 74.8251 65.0581 74.5416 64.5534 74.0369C64.0486 73.5322 63.7651 72.8476 63.7651 72.1339V55.9863H74.5302C75.0676 55.9861 75.5928 55.8251 76.0379 55.5239C76.483 55.2226 76.8277 54.795 77.0277 54.2961L79.9127 47.0835L88.1776 67.7525C88.3769 68.2528 88.7217 68.6818 89.1674 68.984C89.6131 69.2862 90.1392 69.4478 90.6778 69.4478C91.2163 69.4478 91.7424 69.2862 92.1881 68.984C92.6339 68.6818 92.9787 68.2528 93.178 67.7525L97.8823 55.9863H106.825V72.1339C106.825 72.8476 106.542 73.5322 106.037 74.0369C105.532 74.5416 104.848 74.8251 104.134 74.8251ZM66.4564 31.7649H104.134C104.848 31.7649 105.532 32.0484 106.037 32.5531C106.542 33.0578 106.825 33.7424 106.825 34.4561V50.6037H96.0603C95.5221 50.6035 94.9961 50.7647 94.5504 51.0665C94.1048 51.3682 93.7598 51.7967 93.5601 52.2965L90.6778 59.5037L82.4129 38.8375C82.2131 38.3381 81.8683 37.9099 81.4229 37.6084C80.9775 37.3068 80.4519 37.1456 79.914 37.1456C79.3761 37.1456 78.8506 37.3068 78.4052 37.6084C77.9598 37.9099 77.6149 38.3381 77.4152 38.8375L72.7082 50.6037H63.7651V34.4561C63.7651 33.7424 64.0486 33.0578 64.5534 32.5531C65.0581 32.0484 65.7426 31.7649 66.4564 31.7649Z" fill="#292D32"/>
<path d="M54.494 110V97.4H56.726L60.686 103.232L64.61 97.4H66.86V110H64.772V100.694L60.668 106.76L56.582 100.73V110H54.494ZM73.4757 110.216C72.5997 110.216 71.8197 110.018 71.1357 109.622C70.4637 109.214 69.9297 108.656 69.5337 107.948C69.1497 107.24 68.9577 106.424 68.9577 105.5C68.9577 104.576 69.1557 103.76 69.5517 103.052C69.9477 102.344 70.4877 101.792 71.1717 101.396C71.8677 100.988 72.6597 100.784 73.5477 100.784C74.3517 100.784 75.0777 100.994 75.7257 101.414C76.3737 101.822 76.8837 102.416 77.2557 103.196C77.6397 103.976 77.8317 104.906 77.8317 105.986H70.7577L71.0277 105.734C71.0277 106.286 71.1477 106.766 71.3877 107.174C71.6277 107.57 71.9457 107.876 72.3417 108.092C72.7377 108.308 73.1757 108.416 73.6557 108.416C74.2077 108.416 74.6637 108.296 75.0237 108.056C75.3837 107.804 75.6657 107.48 75.8697 107.084L77.6517 107.84C77.3997 108.32 77.0757 108.74 76.6797 109.1C76.2957 109.46 75.8337 109.736 75.2937 109.928C74.7657 110.12 74.1597 110.216 73.4757 110.216ZM71.1537 104.69L70.8657 104.438H75.9417L75.6717 104.69C75.6717 104.198 75.5637 103.796 75.3477 103.484C75.1317 103.16 74.8557 102.92 74.5197 102.764C74.1957 102.596 73.8537 102.512 73.4937 102.512C73.1337 102.512 72.7737 102.596 72.4137 102.764C72.0537 102.92 71.7537 103.16 71.5137 103.484C71.2737 103.796 71.1537 104.198 71.1537 104.69ZM85.8738 110L85.7838 108.326V97.4H87.7818V110H85.8738ZM82.9398 110.216C82.1238 110.216 81.4098 110.024 80.7978 109.64C80.1978 109.244 79.7238 108.692 79.3758 107.984C79.0398 107.276 78.8718 106.448 78.8718 105.5C78.8718 104.54 79.0398 103.712 79.3758 103.016C79.7238 102.308 80.1978 101.762 80.7978 101.378C81.4098 100.982 82.1238 100.784 82.9398 100.784C83.6958 100.784 84.3438 100.982 84.8838 101.378C85.4358 101.762 85.8558 102.308 86.1438 103.016C86.4318 103.712 86.5758 104.54 86.5758 105.5C86.5758 106.448 86.4318 107.276 86.1438 107.984C85.8558 108.692 85.4358 109.244 84.8838 109.64C84.3438 110.024 83.6958 110.216 82.9398 110.216ZM83.4438 108.38C83.8998 108.38 84.3018 108.26 84.6498 108.02C85.0098 107.768 85.2858 107.426 85.4778 106.994C85.6818 106.562 85.7838 106.064 85.7838 105.5C85.7838 104.936 85.6818 104.438 85.4778 104.006C85.2858 103.574 85.0098 103.238 84.6498 102.998C84.3018 102.758 83.8938 102.638 83.4258 102.638C82.9458 102.638 82.5198 102.758 82.1478 102.998C81.7758 103.238 81.4818 103.574 81.2658 104.006C81.0618 104.438 80.9538 104.936 80.9418 105.5C80.9538 106.064 81.0618 106.562 81.2658 106.994C81.4818 107.426 81.7758 107.768 82.1478 108.02C82.5318 108.26 82.9638 108.38 83.4438 108.38ZM90.1365 110V101H92.1345V110H90.1365ZM91.1445 99.29C90.8205 99.29 90.5385 99.176 90.2985 98.948C90.0705 98.708 89.9565 98.426 89.9565 98.102C89.9565 97.778 90.0705 97.502 90.2985 97.274C90.5385 97.046 90.8205 96.932 91.1445 96.932C91.4685 96.932 91.7445 97.046 91.9725 97.274C92.2125 97.502 92.3325 97.778 92.3325 98.102C92.3325 98.426 92.2125 98.708 91.9725 98.948C91.7445 99.176 91.4685 99.29 91.1445 99.29ZM98.7225 110.216C97.7985 110.216 96.9825 110.018 96.2745 109.622C95.5665 109.214 95.0085 108.656 94.6005 107.948C94.2045 107.24 94.0065 106.424 94.0065 105.5C94.0065 104.576 94.2045 103.76 94.6005 103.052C95.0085 102.344 95.5605 101.792 96.2565 101.396C96.9645 100.988 97.7745 100.784 98.6865 100.784C99.5745 100.784 100.379 101 101.099 101.432C101.819 101.852 102.353 102.458 102.701 103.25L100.829 103.97C100.637 103.574 100.343 103.256 99.9465 103.016C99.5505 102.776 99.1005 102.656 98.5965 102.656C98.1045 102.656 97.6665 102.782 97.2825 103.034C96.8985 103.274 96.5985 103.61 96.3825 104.042C96.1665 104.462 96.0585 104.948 96.0585 105.5C96.0585 106.052 96.1665 106.544 96.3825 106.976C96.6105 107.396 96.9165 107.732 97.3005 107.984C97.6965 108.224 98.1405 108.344 98.6325 108.344C99.1365 108.344 99.5865 108.218 99.9825 107.966C100.379 107.702 100.673 107.348 100.865 106.904L102.737 107.624C102.389 108.44 101.855 109.076 101.135 109.532C100.427 109.988 99.6225 110.216 98.7225 110.216ZM109.792 110L109.702 108.308V105.374C109.702 104.762 109.636 104.252 109.504 103.844C109.384 103.424 109.18 103.106 108.892 102.89C108.616 102.662 108.244 102.548 107.776 102.548C107.344 102.548 106.966 102.638 106.642 102.818C106.318 102.998 106.042 103.28 105.814 103.664L104.05 103.016C104.242 102.62 104.494 102.254 104.806 101.918C105.13 101.57 105.532 101.294 106.012 101.09C106.504 100.886 107.092 100.784 107.776 100.784C108.652 100.784 109.384 100.958 109.972 101.306C110.56 101.642 110.992 102.128 111.268 102.764C111.556 103.4 111.7 104.168 111.7 105.068L111.646 110H109.792ZM107.2 110.216C106.12 110.216 105.28 109.976 104.68 109.496C104.092 109.016 103.798 108.338 103.798 107.462C103.798 106.526 104.11 105.812 104.734 105.32C105.37 104.828 106.252 104.582 107.38 104.582H109.792V106.13H108.028C107.224 106.13 106.66 106.244 106.336 106.472C106.012 106.688 105.85 107 105.85 107.408C105.85 107.756 105.988 108.032 106.264 108.236C106.552 108.428 106.948 108.524 107.452 108.524C107.908 108.524 108.304 108.422 108.64 108.218C108.976 108.014 109.234 107.744 109.414 107.408C109.606 107.072 109.702 106.694 109.702 106.274H110.296C110.296 107.498 110.05 108.464 109.558 109.172C109.066 109.868 108.28 110.216 107.2 110.216ZM113.741 110V97.4H115.757V110H113.741ZM59.948 132.216C58.736 132.216 57.656 131.94 56.708 131.388C55.772 130.824 55.034 130.056 54.494 129.084C53.966 128.1 53.702 126.972 53.702 125.7C53.702 124.428 53.966 123.306 54.494 122.334C55.034 121.35 55.772 120.582 56.708 120.03C57.644 119.466 58.718 119.184 59.93 119.184C60.746 119.184 61.514 119.334 62.234 119.634C62.954 119.922 63.59 120.324 64.142 120.84C64.706 121.356 65.138 121.956 65.438 122.64L63.53 123.414C63.314 122.958 63.02 122.556 62.648 122.208C62.288 121.848 61.874 121.572 61.406 121.38C60.938 121.188 60.446 121.092 59.93 121.092C59.138 121.092 58.43 121.29 57.806 121.686C57.194 122.082 56.708 122.628 56.348 123.324C56 124.008 55.826 124.8 55.826 125.7C55.826 126.6 56 127.398 56.348 128.094C56.708 128.79 57.2 129.336 57.824 129.732C58.46 130.128 59.18 130.326 59.984 130.326C60.512 130.326 61.004 130.224 61.46 130.02C61.928 129.804 62.342 129.51 62.702 129.138C63.074 128.766 63.368 128.334 63.584 127.842L65.492 128.616C65.192 129.324 64.766 129.954 64.214 130.506C63.662 131.046 63.02 131.466 62.288 131.766C61.556 132.066 60.776 132.216 59.948 132.216ZM71.2638 132.216C70.3638 132.216 69.5598 132.018 68.8518 131.622C68.1558 131.214 67.6098 130.656 67.2138 129.948C66.8178 129.24 66.6198 128.424 66.6198 127.5C66.6198 126.576 66.8118 125.76 67.1958 125.052C67.5918 124.344 68.1378 123.792 68.8338 123.396C69.5298 122.988 70.3278 122.784 71.2278 122.784C72.1278 122.784 72.9258 122.988 73.6218 123.396C74.3178 123.792 74.8578 124.344 75.2418 125.052C75.6378 125.76 75.8358 126.576 75.8358 127.5C75.8358 128.424 75.6438 129.24 75.2598 129.948C74.8758 130.656 74.3358 131.214 73.6398 131.622C72.9438 132.018 72.1518 132.216 71.2638 132.216ZM71.2638 130.362C71.7558 130.362 72.1938 130.242 72.5778 130.002C72.9618 129.75 73.2618 129.414 73.4778 128.994C73.6938 128.562 73.8018 128.064 73.8018 127.5C73.8018 126.936 73.6878 126.444 73.4598 126.024C73.2438 125.592 72.9438 125.256 72.5598 125.016C72.1758 124.764 71.7318 124.638 71.2278 124.638C70.7238 124.638 70.2798 124.758 69.8958 124.998C69.5118 125.238 69.2118 125.574 68.9958 126.006C68.7798 126.438 68.6718 126.936 68.6718 127.5C68.6718 128.064 68.7798 128.562 68.9958 128.994C69.2238 129.414 69.5298 129.75 69.9138 130.002C70.3098 130.242 70.7598 130.362 71.2638 130.362ZM80.1468 132L83.6568 123H85.7448L82.0368 132H80.1468ZM80.0028 132L76.2768 123H78.3468L81.8748 132H80.0028ZM90.7726 132.216C89.8966 132.216 89.1166 132.018 88.4326 131.622C87.7606 131.214 87.2266 130.656 86.8306 129.948C86.4466 129.24 86.2546 128.424 86.2546 127.5C86.2546 126.576 86.4526 125.76 86.8486 125.052C87.2446 124.344 87.7846 123.792 88.4686 123.396C89.1646 122.988 89.9566 122.784 90.8446 122.784C91.6486 122.784 92.3746 122.994 93.0226 123.414C93.6706 123.822 94.1806 124.416 94.5526 125.196C94.9366 125.976 95.1286 126.906 95.1286 127.986H88.0546L88.3246 127.734C88.3246 128.286 88.4446 128.766 88.6846 129.174C88.9246 129.57 89.2426 129.876 89.6386 130.092C90.0346 130.308 90.4726 130.416 90.9526 130.416C91.5046 130.416 91.9606 130.296 92.3206 130.056C92.6806 129.804 92.9626 129.48 93.1666 129.084L94.9486 129.84C94.6966 130.32 94.3726 130.74 93.9766 131.1C93.5926 131.46 93.1306 131.736 92.5906 131.928C92.0626 132.12 91.4566 132.216 90.7726 132.216ZM88.4506 126.69L88.1626 126.438H93.2386L92.9686 126.69C92.9686 126.198 92.8606 125.796 92.6446 125.484C92.4286 125.16 92.1526 124.92 91.8166 124.764C91.4926 124.596 91.1506 124.512 90.7906 124.512C90.4306 124.512 90.0706 124.596 89.7106 124.764C89.3506 124.92 89.0506 125.16 88.8106 125.484C88.5706 125.796 88.4506 126.198 88.4506 126.69ZM98.0046 127.212C98.0046 126.24 98.1906 125.442 98.5626 124.818C98.9346 124.194 99.4146 123.732 100.003 123.432C100.603 123.12 101.227 122.964 101.875 122.964V124.89C101.323 124.89 100.801 124.968 100.309 125.124C99.8286 125.268 99.4386 125.508 99.1386 125.844C98.8386 126.18 98.6886 126.624 98.6886 127.176L98.0046 127.212ZM96.6726 132V123H98.6886V132H96.6726Z" fill="#292D32"/>
</g>
<defs>
<clipPath id="clip0_2892_54">
<rect width="178" height="157" rx="25" fill="white"/>
</clipPath>
</defs>
</svg>
